SolideMirageMono.ufo
<glyph name="numbersign" format="2">
  <advance width="930"/>
  <unicode hex="0023"/>
  <outline>
    <contour>
      <point x="495" y="0" type="line" name="hr00"/>
      <point x="523" y="0" type="line"/>
      <point x="579" y="246" type="line"/>
      <point x="845" y="246" type="line"/>
      <point x="845" y="273" type="line"/>
      <point x="586" y="273" type="line"/>
      <point x="634" y="486" type="line"/>
      <point x="845" y="486" type="line"/>
      <point x="845" y="513" type="line"/>
      <point x="641" y="513" type="line"/>
      <point x="695" y="750" type="line"/>
      <point x="666" y="750" type="line"/>
      <point x="612" y="513" type="line"/>
      <point x="375" y="513" type="line"/>
      <point x="429" y="750" type="line"/>
      <point x="400" y="750" type="line"/>
      <point x="346" y="513" type="line"/>
      <point x="85" y="513" type="line"/>
      <point x="85" y="486" type="line"/>
      <point x="340" y="486" type="line"/>
      <point x="291" y="273" type="line"/>
      <point x="85" y="273" type="line"/>
      <point x="85" y="246" type="line"/>
      <point x="285" y="246" type="line"/>
      <point x="229" y="0" type="line"/>
      <point x="257" y="0" type="line"/>
      <point x="313" y="246" type="line"/>
      <point x="551" y="246" type="line"/>
    </contour>
    <contour>
      <point x="320" y="273" type="line"/>
      <point x="368" y="486" type="line"/>
      <point x="606" y="486" type="line"/>
      <point x="557" y="273" type="line"/>
    </contour>
  </outline>
</glyph>
<glyph name="ampersand" format="2">
  <advance width="930"/>
  <unicode hex="0026"/>
  <outline>
    <contour>
      <point x="865" y="127" type="curve" name="hr01"/>
      <point x="865" y="263" type="line"/>
      <point x="838" y="263" type="line"/>
      <point x="838" y="127" type="line" smooth="yes"/>
      <point x="838" y="88"/>
      <point x="827" y="62"/>
      <point x="796" y="62" type="curve" smooth="yes"/>
      <point x="765" y="62"/>
      <point x="727" y="97"/>
      <point x="627" y="210" type="curve" smooth="yes"/>
      <point x="613" y="226" type="line"/>
      <point x="637" y="294"/>
      <point x="641" y="370"/>
      <point x="641" y="435" type="curve"/>
      <point x="805" y="435" type="line"/>
      <point x="805" y="462" type="line"/>
      <point x="564" y="462" type="line" name="hr02"/>
      <point x="610" y="492"/>
      <point x="639" y="545"/>
      <point x="639" y="605" type="curve" smooth="yes"/>
      <point x="639" y="713"/>
      <point x="552" y="770"/>
      <point x="422" y="770" type="curve" smooth="yes"/>
      <point x="283" y="770"/>
      <point x="203" y="697"/>
      <point x="202" y="597" type="curve" smooth="yes"/>
      <point x="202" y="541"/>
      <point x="223" y="471"/>
      <point x="281" y="407" type="curve" smooth="yes"/>
      <point x="303" y="383" type="line"/>
      <point x="191" y="340"/>
      <point x="77" y="269"/>
      <point x="77" y="155" type="curve" smooth="yes" name="hr03"/>
      <point x="77" y="74"/>
      <point x="158" y="-20"/>
      <point x="286" y="-20" type="curve" smooth="yes"/>
      <point x="400" y="-20"/>
      <point x="496" y="28"/>
      <point x="551" y="107" type="curve"/>
      <point x="647" y="6"/>
      <point x="697" y="-20"/>
      <point x="749" y="-20" type="curve" smooth="yes" name="hr04"/>
      <point x="828" y="-20"/>
      <point x="865" y="23"/>
    </contour>
    <contour>
      <point x="390" y="476" type="line" smooth="yes" name="hr05"/>
      <point x="319" y="555"/>
      <point x="298" y="611"/>
      <point x="298" y="651" type="curve" smooth="yes"/>
      <point x="298" y="721"/>
      <point x="358" y="743"/>
      <point x="427" y="743" type="curve" smooth="yes"/>
      <point x="534" y="743"/>
      <point x="612" y="702"/>
      <point x="612" y="605" type="curve" smooth="yes"/>
      <point x="612" y="531"/>
      <point x="565" y="468"/>
      <point x="480" y="462" type="curve"/>
      <point x="480" y="435" type="line"/>
      <point x="615" y="435" type="line" name="hr06"/>
      <point x="615" y="374"/>
      <point x="611" y="307"/>
      <point x="593" y="249" type="curve"/>
    </contour>
    <contour>
      <point x="217" y="176" type="curve" smooth="yes"/>
      <point x="217" y="295"/>
      <point x="240" y="332"/>
      <point x="321" y="363" type="curve"/>
      <point x="513" y="148" type="line" smooth="yes"/>
      <point x="520" y="140"/>
      <point x="527" y="133"/>
      <point x="533" y="126" type="curve"/>
      <point x="471" y="49"/>
      <point x="411" y="16"/>
      <point x="326" y="16" type="curve" smooth="yes"/>
      <point x="257" y="16"/>
      <point x="217" y="59"/>
    </contour>
  </outline>
</glyph>
<glyph name="parenright" format="2">
  <advance width="465"/>
  <unicode hex="0029"/>
  <outline>
    <contour>
      <point x="21" y="803" type="line" name="hr00"/>
      <point x="243" y="803"/>
      <point x="366" y="668"/>
      <point x="366" y="383" type="curve" smooth="yes"/>
      <point x="366" y="88"/>
      <point x="250" y="-53"/>
      <point x="21" y="-53" type="curve"/>
      <point x="21" y="-80" type="line"/>
      <point x="269" y="-80"/>
      <point x="395" y="84"/>
      <point x="395" y="382" type="curve" smooth="yes"/>
      <point x="395" y="672"/>
      <point x="266" y="830"/>
      <point x="21" y="830" type="curve"/>
    </contour>
  </outline>
</glyph>
<glyph name="asterisk" format="2">
  <advance width="465"/>
  <unicode hex="002A"/>
  <outline>
    <contour>
      <point x="193" y="430" type="curve" name="hr01"/>
      <point x="192" y="468"/>
      <point x="195" y="506"/>
      <point x="232" y="562" type="curve"/>
      <point x="269" y="506"/>
      <point x="272" y="468"/>
      <point x="271" y="430" type="curve" name="hr02"/>
      <point x="285" y="411"/>
      <point x="316" y="402"/>
      <point x="345" y="423" type="curve" smooth="yes"/>
      <point x="374" y="444"/>
      <point x="375" y="476"/>
      <point x="361" y="495" type="curve"/>
      <point x="323" y="506"/>
      <point x="290" y="521"/>
      <point x="248" y="574" type="curve"/>
      <point x="313" y="592"/>
      <point x="348" y="583"/>
      <point x="385" y="570" type="curve" name="hr03"/>
      <point x="408" y="578"/>
      <point x="425" y="604"/>
      <point x="415" y="638" type="curve"/>
      <point x="403" y="672"/>
      <point x="374" y="683"/>
      <point x="351" y="676" type="curve"/>
      <point x="329" y="644"/>
      <point x="304" y="616"/>
      <point x="242" y="593" type="curve" name="hr04"/>
      <point x="245" y="659"/>
      <point x="265" y="690"/>
      <point x="288" y="721" type="curve" name="hr05"/>
      <point x="288" y="745"/>
      <point x="268" y="770"/>
      <point x="232" y="770" type="curve" smooth="yes"/>
      <point x="197" y="770"/>
      <point x="177" y="745"/>
      <point x="177" y="721" type="curve"/>
      <point x="200" y="690"/>
      <point x="219" y="659"/>
      <point x="222" y="593" type="curve" name="hr06"/>
      <point x="160" y="616"/>
      <point x="135" y="644"/>
      <point x="113" y="676" type="curve" name="hr07"/>
      <point x="90" y="683"/>
      <point x="61" y="672"/>
      <point x="49" y="638" type="curve"/>
      <point x="39" y="604"/>
      <point x="56" y="578"/>
      <point x="79" y="570" type="curve"/>
      <point x="116" y="583"/>
      <point x="151" y="592"/>
      <point x="216" y="574" type="curve" name="hr08"/>
      <point x="174" y="521"/>
      <point x="141" y="506"/>
      <point x="103" y="495" type="curve" name="hr09"/>
      <point x="89" y="476"/>
      <point x="90" y="444"/>
      <point x="119" y="423" type="curve" smooth="yes"/>
      <point x="148" y="402"/>
      <point x="179" y="411"/>
    </contour>
  </outline>
</glyph>
<glyph name="slash" format="2">
  <advance width="465"/>
  <unicode hex="002F"/>
  <outline>
    <contour>
      <point x="131" y="0" type="line" name="hr00"/>
      <point x="366" y="750" type="line"/>
      <point x="335" y="750" type="line"/>
      <point x="100" y="0" type="line"/>
    </contour>
  </outline>
</glyph>
<glyph name="zero" format="2">
  <advance width="930"/>
  <unicode hex="0030"/>
  <outline>
    <contour>
      <point x="464" y="770" type="curve" smooth="yes" name="hr00"/>
      <point x="216" y="770"/>
      <point x="90" y="627"/>
      <point x="90" y="368" type="curve" smooth="yes"/>
      <point x="90" y="117"/>
      <point x="219" y="-20"/>
      <point x="464" y="-20" type="curve" smooth="yes"/>
      <point x="709" y="-20"/>
      <point x="840" y="117"/>
      <point x="840" y="368" type="curve" smooth="yes"/>
      <point x="840" y="627"/>
      <point x="714" y="770"/>
    </contour>
    <contour>
      <point x="464" y="745" type="curve" smooth="yes"/>
      <point x="639" y="745"/>
      <point x="700" y="641"/>
      <point x="700" y="367" type="curve" smooth="yes"/>
      <point x="700" y="109"/>
      <point x="635" y="5"/>
      <point x="464" y="5" type="curve" smooth="yes"/>
      <point x="293" y="5"/>
      <point x="230" y="109"/>
      <point x="230" y="367" type="curve" smooth="yes"/>
      <point x="230" y="641"/>
      <point x="289" y="745"/>
    </contour>
  </outline>
</glyph>
<glyph name="three" format="2">
  <advance width="930"/>
  <unicode hex="0033"/>
  <outline>
    <contour>
      <point x="800" y="255" type="curve" smooth="yes" name="hr01"/>
      <point x="800" y="410"/>
      <point x="682" y="503"/>
      <point x="533" y="501" type="curve" smooth="yes"/>
      <point x="500" y="501"/>
      <point x="466" y="496"/>
      <point x="433" y="487" type="curve"/>
      <point x="794" y="727" type="line"/>
      <point x="794" y="750" type="line"/>
      <point x="144" y="750" type="line"/>
      <point x="144" y="412" type="line"/>
      <point x="169" y="412" type="line"/>
      <point x="169" y="557" type="line" smooth="yes"/>
      <point x="169" y="612"/>
      <point x="189" y="633"/>
      <point x="233" y="633" type="curve" smooth="yes"/>
      <point x="604" y="633" type="line"/>
      <point x="213" y="370" type="line"/>
      <point x="225" y="349" type="line"/>
      <point x="344" y="428" type="line"/>
      <point x="410" y="467"/>
      <point x="457" y="475"/>
      <point x="530" y="475" type="curve" smooth="yes"/>
      <point x="631" y="475"/>
      <point x="660" y="422"/>
      <point x="660" y="239" type="curve" smooth="yes"/>
      <point x="660" y="86"/>
      <point x="593" y="8"/>
      <point x="454" y="8" type="curve" smooth="yes"/>
      <point x="216" y="8"/>
      <point x="159" y="113"/>
      <point x="159" y="264" type="curve" name="hr02"/>
      <point x="132" y="264" type="line"/>
      <point x="132" y="86"/>
      <point x="213" y="-20"/>
      <point x="473" y="-20" type="curve" smooth="yes"/>
      <point x="676" y="-20"/>
      <point x="800" y="77"/>
    </contour>
  </outline>
</glyph>
<glyph name="four" format="2">
  <advance width="930"/>
  <unicode hex="0034"/>
  <outline>
    <contour>
      <point x="214" y="25" type="line" name="hr00"/>
      <point x="214" y="0" type="line"/>
      <point x="810" y="0" type="line"/>
      <point x="810" y="25" type="line"/>
      <point x="576" y="25" type="line"/>
      <point x="576" y="210" type="line"/>
      <point x="811" y="210" type="line"/>
      <point x="811" y="237" type="line"/>
      <point x="576" y="237" type="line"/>
      <point x="576" y="388" type="line"/>
      <point x="557" y="388" type="line"/>
      <point x="448" y="270" type="line"/>
      <point x="448" y="237" type="line"/>
      <point x="252" y="237" type="line"/>
      <point x="689" y="723" type="line"/>
      <point x="689" y="750" type="line"/>
      <point x="544" y="750" type="line"/>
      <point x="87" y="237" type="line"/>
      <point x="87" y="210" type="line"/>
      <point x="448" y="210" type="line"/>
      <point x="448" y="25" type="line"/>
    </contour>
  </outline>
</glyph>
<glyph name="five" format="2">
  <advance width="930"/>
  <unicode hex="0035"/>
  <outline>
    <contour>
      <point x="449" y="513" type="curve" smooth="yes" name="hr01"/>
      <point x="611" y="513"/>
      <point x="670" y="436"/>
      <point x="670" y="257" type="curve" smooth="yes" name="hr02"/>
      <point x="670" y="85"/>
      <point x="608" y="7"/>
      <point x="444" y="7" type="curve" smooth="yes"/>
      <point x="259" y="7"/>
      <point x="147" y="87"/>
      <point x="147" y="261" type="curve"/>
      <point x="120" y="261" type="line"/>
      <point x="120" y="78"/>
      <point x="239" y="-20"/>
      <point x="444" y="-20" type="curve" smooth="yes"/>
      <point x="693" y="-20"/>
      <point x="810" y="77"/>
      <point x="810" y="258" type="curve" smooth="yes"/>
      <point x="810" y="440"/>
      <point x="698" y="540"/>
      <point x="450" y="540" type="curve" smooth="yes"/>
      <point x="309" y="540"/>
      <point x="220" y="500"/>
      <point x="175" y="427" type="curve"/>
      <point x="189" y="633" type="line"/>
      <point x="655" y="633" type="line" smooth="yes" name="hr03"/>
      <point x="699" y="633"/>
      <point x="719" y="612"/>
      <point x="719" y="557" type="curve" smooth="yes"/>
      <point x="719" y="515" type="line"/>
      <point x="744" y="515" type="line"/>
      <point x="744" y="750" type="line"/>
      <point x="170" y="750" type="line"/>
      <point x="140" y="311" type="line"/>
      <point x="167" y="311" type="line"/>
      <point x="178" y="441"/>
      <point x="258" y="513"/>
    </contour>
  </outline>
</glyph>
<glyph name="nine" format="2">
  <advance width="930"/>
  <unicode hex="0039"/>
  <outline>
    <contour>
      <point x="815" y="368" type="curve" smooth="yes" name="hr01"/>
      <point x="815" y="692"/>
      <point x="628" y="770"/>
      <point x="448" y="770" type="curve" smooth="yes"/>
      <point x="232" y="770"/>
      <point x="126" y="682"/>
      <point x="126" y="524" type="curve" smooth="yes" name="hr02"/>
      <point x="126" y="366"/>
      <point x="232" y="279"/>
      <point x="448" y="279" type="curve" smooth="yes"/>
      <point x="592" y="279"/>
      <point x="647" y="346"/>
      <point x="657" y="377" type="curve"/>
      <point x="657" y="343" type="line" smooth="yes"/>
      <point x="657" y="108"/>
      <point x="597" y="7"/>
      <point x="430" y="7" type="curve" smooth="yes"/>
      <point x="247" y="7"/>
      <point x="158" y="94"/>
      <point x="158" y="249" type="curve" name="hr03"/>
      <point x="131" y="249" type="line"/>
      <point x="131" y="79"/>
      <point x="235" y="-20"/>
      <point x="431" y="-20" type="curve" smooth="yes"/>
      <point x="696" y="-20"/>
      <point x="815" y="86"/>
    </contour>
    <contour>
      <point x="447" y="743" type="curve" smooth="yes" name="hr04"/>
      <point x="619" y="743"/>
      <point x="657" y="642"/>
      <point x="657" y="508" type="curve" smooth="yes"/>
      <point x="657" y="493" type="line" smooth="yes"/>
      <point x="657" y="345"/>
      <point x="563" y="306"/>
      <point x="446" y="306" type="curve" smooth="yes"/>
      <point x="299" y="306"/>
      <point x="266" y="345"/>
      <point x="266" y="521" type="curve" smooth="yes"/>
      <point x="266" y="694"/>
      <point x="306" y="743"/>
    </contour>
  </outline>
</glyph>
<glyph name="colon" format="2">
  <advance width="465"/>
  <unicode hex="003A"/>
  <outline>
    <contour>
      <point x="231" y="694" type="curve" smooth="yes" name="hr00"/>
      <point x="148" y="694"/>
      <point x="107" y="647"/>
      <point x="107" y="562" type="curve" smooth="yes"/>
      <point x="107" y="485"/>
      <point x="150" y="444"/>
      <point x="231" y="444" type="curve" smooth="yes"/>
      <point x="313" y="444"/>
      <point x="357" y="485"/>
      <point x="357" y="562" type="curve" smooth="yes"/>
      <point x="357" y="647"/>
      <point x="315" y="694"/>
    </contour>
    <contour>
      <point x="231" y="667" type="curve" smooth="yes"/>
      <point x="300" y="667"/>
      <point x="330" y="635"/>
      <point x="330" y="561" type="curve" smooth="yes"/>
      <point x="330" y="499"/>
      <point x="298" y="471"/>
      <point x="231" y="471" type="curve" smooth="yes"/>
      <point x="165" y="471"/>
      <point x="134" y="499"/>
      <point x="134" y="561" type="curve" smooth="yes"/>
      <point x="134" y="635"/>
      <point x="163" y="667"/>
    </contour>
    <contour>
      <point x="231" y="310" type="curve" smooth="yes"/>
      <point x="148" y="310"/>
      <point x="107" y="263"/>
      <point x="107" y="178" type="curve" smooth="yes"/>
      <point x="107" y="101"/>
      <point x="150" y="60"/>
      <point x="231" y="60" type="curve" smooth="yes"/>
      <point x="313" y="60"/>
      <point x="357" y="101"/>
      <point x="357" y="178" type="curve" smooth="yes"/>
      <point x="357" y="263"/>
      <point x="315" y="310"/>
    </contour>
    <contour>
      <point x="231" y="283" type="curve" smooth="yes"/>
      <point x="300" y="283"/>
      <point x="330" y="251"/>
      <point x="330" y="177" type="curve" smooth="yes"/>
      <point x="330" y="115"/>
      <point x="298" y="87"/>
      <point x="231" y="87" type="curve" smooth="yes"/>
      <point x="165" y="87"/>
      <point x="134" y="115"/>
      <point x="134" y="177" type="curve" smooth="yes"/>
      <point x="134" y="251"/>
      <point x="163" y="283"/>
    </contour>
  </outline>
</glyph>
<glyph name="semicolon" format="2">
  <advance width="465"/>
  <unicode hex="003B"/>
  <outline>
    <contour>
      <point x="231" y="694" type="curve" smooth="yes" name="hr01"/>
      <point x="148" y="694"/>
      <point x="107" y="647"/>
      <point x="107" y="562" type="curve" smooth="yes"/>
      <point x="107" y="485"/>
      <point x="150" y="444"/>
      <point x="231" y="444" type="curve" smooth="yes"/>
      <point x="313" y="444"/>
      <point x="357" y="485"/>
      <point x="357" y="562" type="curve" smooth="yes"/>
      <point x="357" y="647"/>
      <point x="315" y="694"/>
    </contour>
    <contour>
      <point x="231" y="667" type="curve" smooth="yes"/>
      <point x="300" y="667"/>
      <point x="330" y="635"/>
      <point x="330" y="561" type="curve" smooth="yes"/>
      <point x="330" y="499"/>
      <point x="298" y="471"/>
      <point x="231" y="471" type="curve" smooth="yes"/>
      <point x="165" y="471"/>
      <point x="134" y="499"/>
      <point x="134" y="561" type="curve" smooth="yes"/>
      <point x="134" y="635"/>
      <point x="163" y="667"/>
    </contour>
    <contour>
      <point x="343" y="243" type="line" name="hr02"/>
      <point x="343" y="270" type="line"/>
      <point x="136" y="270" type="line"/>
      <point x="136" y="243" type="line"/>
      <point x="313" y="243" type="line"/>
      <point x="172" y="-36" type="line"/>
      <point x="197" y="-48" type="line"/>
    </contour>
  </outline>
</glyph>
<glyph name="question" format="2">
  <advance width="930"/>
  <unicode hex="003F"/>
  <outline>
    <contour>
      <point x="170" y="429" type="line" smooth="yes" name="hr00"/>
      <point x="170" y="644"/>
      <point x="270" y="743"/>
      <point x="423" y="743" type="curve"/>
      <point x="574" y="746"/>
      <point x="646" y="698"/>
      <point x="646" y="590" type="curve" smooth="yes"/>
      <point x="646" y="505"/>
      <point x="643" y="453"/>
      <point x="570" y="414" type="curve" smooth="yes"/>
      <point x="481" y="366"/>
      <point x="452" y="342"/>
      <point x="451" y="212" type="curve"/>
      <point x="480" y="212" type="line"/>
      <point x="480" y="325"/>
      <point x="495" y="348"/>
      <point x="583" y="390" type="curve" smooth="yes"/>
      <point x="692" y="442"/>
      <point x="786" y="448"/>
      <point x="786" y="585" type="curve" smooth="yes"/>
      <point x="786" y="709"/>
      <point x="648" y="770"/>
      <point x="439" y="770" type="curve" smooth="yes"/>
      <point x="296" y="770"/>
      <point x="205" y="706"/>
      <point x="165" y="591" type="curve"/>
      <point x="165" y="750" type="line"/>
      <point x="140" y="750" type="line"/>
      <point x="140" y="397" type="line"/>
      <point x="170" y="397" type="line"/>
    </contour>
    <contour>
      <point x="479" y="-50" type="line"/>
      <point x="479" y="170" type="line"/>
      <point x="451" y="170" type="line"/>
      <point x="451" y="-50" type="line"/>
    </contour>
  </outline>
</glyph>
<glyph name="at" format="2">
  <advance width="930"/>
  <unicode hex="0040"/>
  <outline>
    <contour>
      <point x="664" y="22" type="curve" name="hr01"/>
      <point x="652" y="48" type="line"/>
      <point x="601" y="22"/>
      <point x="538" y="9"/>
      <point x="464" y="9" type="curve" smooth="yes"/>
      <point x="242" y="9"/>
      <point x="119" y="124"/>
      <point x="119" y="367" type="curve" smooth="yes"/>
      <point x="119" y="620"/>
      <point x="235" y="741"/>
      <point x="464" y="741" type="curve" smooth="yes"/>
      <point x="694" y="741"/>
      <point x="810" y="620"/>
      <point x="810" y="367" type="curve" smooth="yes"/>
      <point x="810" y="211"/>
      <point x="800" y="158"/>
      <point x="760" y="158" type="curve" smooth="yes" name="hr02"/>
      <point x="733" y="158"/>
      <point x="722" y="173"/>
      <point x="722" y="238" type="curve" smooth="yes"/>
      <point x="722" y="605" type="line"/>
      <point x="699" y="605" type="line"/>
      <point x="596" y="526" type="line"/>
      <point x="587" y="554"/>
      <point x="539" y="611"/>
      <point x="452" y="611" type="curve" smooth="yes"/>
      <point x="286" y="611"/>
      <point x="205" y="524"/>
      <point x="205" y="366" type="curve" smooth="yes"/>
      <point x="205" y="208"/>
      <point x="286" y="120"/>
      <point x="452" y="120" type="curve" smooth="yes" name="hr03"/>
      <point x="521" y="120"/>
      <point x="571" y="156"/>
      <point x="596" y="217" type="curve"/>
      <point x="596" y="136"/>
      <point x="647" y="120"/>
      <point x="733" y="120" type="curve" smooth="yes" name="hr04"/>
      <point x="819" y="120"/>
      <point x="839" y="175"/>
      <point x="839" y="368" type="curve" smooth="yes"/>
      <point x="839" y="627"/>
      <point x="713" y="770"/>
      <point x="464" y="770" type="curve" smooth="yes"/>
      <point x="216" y="770"/>
      <point x="90" y="627"/>
      <point x="90" y="368" type="curve" smooth="yes"/>
      <point x="90" y="117"/>
      <point x="219" y="-20"/>
      <point x="464" y="-20" type="curve" smooth="yes"/>
      <point x="543" y="-20"/>
      <point x="610" y="-6"/>
    </contour>
    <contour>
      <point x="451" y="147" type="curve" smooth="yes"/>
      <point x="368" y="147"/>
      <point x="345" y="196"/>
      <point x="345" y="369" type="curve" smooth="yes"/>
      <point x="345" y="545"/>
      <point x="364" y="584"/>
      <point x="450" y="584" type="curve" smooth="yes"/>
      <point x="529" y="584"/>
      <point x="594" y="549"/>
      <point x="594" y="417" type="curve" smooth="yes"/>
      <point x="594" y="352" type="line" smooth="yes"/>
      <point x="594" y="235"/>
      <point x="568" y="147"/>
    </contour>
  </outline>
</glyph>
<glyph name="D" format="2">
  <advance width="930"/>
  <unicode hex="0044"/>
  <outline>
    <contour>
      <point x="90" y="724" type="line" name="hr00"/>
      <point x="194" y="724" type="line"/>
      <point x="194" y="25" type="line"/>
      <point x="90" y="25" type="line"/>
      <point x="90" y="0" type="line"/>
      <point x="474" y="0" type="line" smooth="yes"/>
      <point x="715" y="0"/>
      <point x="840" y="108"/>
      <point x="840" y="375" type="curve" smooth="yes"/>
      <point x="840" y="642"/>
      <point x="715" y="750"/>
      <point x="471" y="750" type="curve" smooth="yes"/>
      <point x="90" y="750" type="line"/>
    </contour>
    <contour>
      <point x="452" y="722" type="line" smooth="yes"/>
      <point x="633" y="722"/>
      <point x="700" y="622"/>
      <point x="700" y="374" type="curve" smooth="yes"/>
      <point x="700" y="127"/>
      <point x="634" y="28"/>
      <point x="454" y="28" type="curve" smooth="yes"/>
      <point x="322" y="28" type="line"/>
      <point x="322" y="722" type="line"/>
    </contour>
  </outline>
</glyph>
<glyph name="E" format="2">
  <advance width="930"/>
  <unicode hex="0045"/>
  <outline>
    <contour>
      <point x="90" y="725" type="line" name="hr01"/>
      <point x="194" y="725" type="line"/>
      <point x="194" y="25" type="line" name="hr02"/>
      <point x="90" y="25" type="line"/>
      <point x="90" y="0" type="line" name="hr03"/>
      <point x="800" y="0" type="line"/>
      <point x="800" y="289" type="line"/>
      <point x="775" y="289" type="line"/>
      <point x="775" y="194" type="line" smooth="yes"/>
      <point x="775" y="60"/>
      <point x="742" y="27"/>
      <point x="598" y="27" type="curve" smooth="yes"/>
      <point x="322" y="27" type="line"/>
      <point x="322" y="367" type="line"/>
      <point x="576" y="367" type="line"/>
      <point x="576" y="202" type="line"/>
      <point x="601" y="202" type="line"/>
      <point x="601" y="545" type="line"/>
      <point x="576" y="545" type="line"/>
      <point x="576" y="394" type="line"/>
      <point x="322" y="394" type="line"/>
      <point x="322" y="723" type="line"/>
      <point x="599" y="723" type="line" smooth="yes"/>
      <point x="729" y="723"/>
      <point x="756" y="694"/>
      <point x="756" y="566" type="curve" smooth="yes" name="hr04"/>
      <point x="756" y="461" type="line"/>
      <point x="781" y="461" type="line"/>
      <point x="781" y="750" type="line" name="hr05"/>
      <point x="90" y="750" type="line"/>
    </contour>
  </outline>
</glyph>
<glyph name="G" format="2">
  <advance width="930"/>
  <unicode hex="0047"/>
  <outline>
    <contour>
      <point x="568" y="318" type="line" name="hr00"/>
      <point x="568" y="293" type="line"/>
      <point x="815" y="293" type="line"/>
      <point x="808" y="99"/>
      <point x="688" y="9"/>
      <point x="496" y="9" type="curve" smooth="yes"/>
      <point x="293" y="9"/>
      <point x="230" y="110"/>
      <point x="230" y="367" type="curve" smooth="yes"/>
      <point x="230" y="640"/>
      <point x="286" y="743"/>
      <point x="481" y="743" type="curve" smooth="yes"/>
      <point x="666" y="743"/>
      <point x="755" y="629"/>
      <point x="755" y="421" type="curve"/>
      <point x="780" y="421" type="line"/>
      <point x="780" y="750" type="line"/>
      <point x="755" y="750" type="line"/>
      <point x="755" y="587" type="line"/>
      <point x="713" y="705"/>
      <point x="621" y="770"/>
      <point x="480" y="770" type="curve" smooth="yes"/>
      <point x="211" y="770"/>
      <point x="90" y="627"/>
      <point x="90" y="368" type="curve" smooth="yes"/>
      <point x="90" y="116"/>
      <point x="219" y="-20"/>
      <point x="496" y="-20" type="curve" smooth="yes"/>
      <point x="657" y="-20"/>
      <point x="768" y="43"/>
      <point x="815" y="164" type="curve"/>
      <point x="815" y="1" type="line"/>
      <point x="840" y="1" type="line"/>
      <point x="840" y="318" type="line"/>
    </contour>
  </outline>
</glyph>
<glyph name="I" format="2">
  <advance width="930"/>
  <unicode hex="0049"/>
  <outline>
    <contour>
      <point x="90" y="725" type="line" name="hr01"/>
      <point x="401" y="725" type="line"/>
      <point x="401" y="25" type="line"/>
      <point x="90" y="25" type="line"/>
      <point x="90" y="0" type="line"/>
      <point x="839" y="0" type="line"/>
      <point x="839" y="25" type="line"/>
      <point x="529" y="25" type="line"/>
      <point x="529" y="726" type="line" name="hr02"/>
      <point x="840" y="726" type="line"/>
      <point x="840" y="750" type="line"/>
      <point x="90" y="750" type="line"/>
    </contour>
  </outline>
</glyph>
<glyph name="J" format="2">
  <advance width="930"/>
  <unicode hex="004A"/>
  <outline>
    <contour>
      <point x="180" y="725" type="line" name="hr00"/>
      <point x="541" y="725" type="line"/>
      <point x="541" y="278" type="line" smooth="yes"/>
      <point x="541" y="70"/>
      <point x="502" y="7"/>
      <point x="372" y="7" type="curve" smooth="yes"/>
      <point x="233" y="7"/>
      <point x="114" y="144"/>
      <point x="114" y="361" type="curve" smooth="yes"/>
      <point x="114" y="413" type="line"/>
      <point x="89" y="413" type="line"/>
      <point x="89" y="0" type="line"/>
      <point x="114" y="0" type="line"/>
      <point x="114" y="193" type="line"/>
      <point x="157" y="59"/>
      <point x="267" y="-20"/>
      <point x="388" y="-20" type="curve" smooth="yes"/>
      <point x="547" y="-20"/>
      <point x="669" y="54"/>
      <point x="669" y="279" type="curve" smooth="yes"/>
      <point x="669" y="725" type="line"/>
      <point x="870" y="725" type="line"/>
      <point x="870" y="750" type="line"/>
      <point x="180" y="750" type="line"/>
    </contour>
  </outline>
</glyph>
<glyph name="K" format="2">
  <advance width="930"/>
  <unicode hex="004B"/>
  <outline>
    <contour>
      <point x="596" y="725" type="line" name="hr01"/>
      <point x="706" y="725" type="line"/>
      <point x="449" y="385" type="line"/>
      <point x="445" y="386"/>
      <point x="441" y="386"/>
      <point x="437" y="386" type="curve" smooth="yes"/>
      <point x="322" y="386" type="line"/>
      <point x="322" y="724" type="line" name="hr02"/>
      <point x="448" y="724" type="line"/>
      <point x="448" y="750" type="line"/>
      <point x="90" y="750" type="line"/>
      <point x="90" y="724" type="line"/>
      <point x="194" y="724" type="line"/>
      <point x="194" y="25" type="line"/>
      <point x="90" y="25" type="line"/>
      <point x="90" y="0" type="line"/>
      <point x="448" y="0" type="line"/>
      <point x="448" y="25" type="line"/>
      <point x="322" y="25" type="line"/>
      <point x="322" y="359" type="line"/>
      <point x="415" y="359" type="line" smooth="yes"/>
      <point x="628" y="359"/>
      <point x="451" y="-20"/>
      <point x="725" y="-20" type="curve" smooth="yes" name="hr03"/>
      <point x="809" y="-20"/>
      <point x="856" y="19"/>
      <point x="856" y="103" type="curve" smooth="yes"/>
      <point x="856" y="210" type="line"/>
      <point x="831" y="210" type="line"/>
      <point x="831" y="103" type="line" smooth="yes"/>
      <point x="831" y="48"/>
      <point x="811" y="27"/>
      <point x="769" y="27" type="curve" smooth="yes"/>
      <point x="649" y="27"/>
      <point x="732" y="344"/>
      <point x="480" y="382" type="curve"/>
      <point x="740" y="725" type="line"/>
      <point x="845" y="725" type="line" name="hr04"/>
      <point x="845" y="750" type="line"/>
      <point x="596" y="750" type="line"/>
    </contour>
  </outline>
</glyph>
<glyph name="Q" format="2">
  <advance width="930"/>
  <unicode hex="0051"/>
  <outline>
    <contour>
      <point x="861" y="-127" type="curve" name="hr01"/>
      <point x="861" y="-20" type="line"/>
      <point x="836" y="-20" type="line"/>
      <point x="836" y="-127" type="line" smooth="yes"/>
      <point x="836" y="-182"/>
      <point x="816" y="-203"/>
      <point x="774" y="-203" type="curve" smooth="yes"/>
      <point x="710" y="-203"/>
      <point x="701" y="-89"/>
      <point x="670" y="25" type="curve"/>
      <point x="782" y="84"/>
      <point x="840" y="201"/>
      <point x="840" y="368" type="curve" smooth="yes" name="hr02"/>
      <point x="840" y="627"/>
      <point x="714" y="770"/>
      <point x="464" y="770" type="curve" smooth="yes"/>
      <point x="216" y="770"/>
      <point x="90" y="627"/>
      <point x="90" y="368" type="curve" smooth="yes"/>
      <point x="90" y="117"/>
      <point x="219" y="-20"/>
      <point x="464" y="-20" type="curve" smooth="yes"/>
      <point x="500" y="-20"/>
      <point x="533" y="-17"/>
      <point x="564" y="-11" type="curve"/>
      <point x="584" y="-131"/>
      <point x="608" y="-250"/>
      <point x="730" y="-250" type="curve" smooth="yes"/>
      <point x="814" y="-250"/>
      <point x="861" y="-211"/>
    </contour>
    <contour>
      <point x="230" y="367" type="curve" smooth="yes"/>
      <point x="230" y="641"/>
      <point x="289" y="745"/>
      <point x="464" y="745" type="curve" smooth="yes"/>
      <point x="639" y="745"/>
      <point x="700" y="641"/>
      <point x="700" y="367" type="curve" smooth="yes" name="hr04"/>
      <point x="700" y="240"/>
      <point x="684" y="151"/>
      <point x="648" y="93" type="curve"/>
      <point x="614" y="181"/>
      <point x="556" y="255"/>
      <point x="433" y="255" type="curve" smooth="yes"/>
      <point x="352" y="255"/>
      <point x="290" y="198"/>
      <point x="290" y="129" type="curve" smooth="yes"/>
      <point x="290" y="106"/>
      <point x="295" y="83"/>
      <point x="309" y="57" type="curve"/>
      <point x="253" y="111"/>
      <point x="230" y="211"/>
    </contour>
    <contour>
      <point x="317" y="125" type="curve" smooth="yes"/>
      <point x="317" y="179"/>
      <point x="350" y="229"/>
      <point x="420" y="229" type="curve" smooth="yes"/>
      <point x="518" y="229"/>
      <point x="540" y="128"/>
      <point x="558" y="19" type="curve"/>
      <point x="531" y="10"/>
      <point x="500" y="5"/>
      <point x="464" y="5" type="curve" smooth="yes"/>
      <point x="432" y="5"/>
      <point x="404" y="9"/>
      <point x="379" y="16" type="curve"/>
      <point x="340" y="33"/>
      <point x="317" y="80"/>
    </contour>
  </outline>
</glyph>
<glyph name="U" format="2">
  <advance width="930"/>
  <unicode hex="0055"/>
  <outline>
    <contour>
      <point x="640" y="725" type="line" name="hr00"/>
      <point x="736" y="725" type="line"/>
      <point x="736" y="311" type="line" smooth="yes"/>
      <point x="736" y="110"/>
      <point x="639" y="18"/>
      <point x="489" y="16" type="curve" smooth="yes"/>
      <point x="349" y="14"/>
      <point x="290" y="87"/>
      <point x="290" y="279" type="curve" smooth="yes"/>
      <point x="290" y="725" type="line"/>
      <point x="408" y="725" type="line"/>
      <point x="408" y="750" type="line"/>
      <point x="70" y="750" type="line"/>
      <point x="70" y="725" type="line"/>
      <point x="164" y="725" type="line"/>
      <point x="164" y="280" type="line" smooth="yes"/>
      <point x="164" y="75"/>
      <point x="287" y="-20"/>
      <point x="473" y="-20" type="curve" smooth="yes"/>
      <point x="667" y="-20"/>
      <point x="767" y="105"/>
      <point x="767" y="311" type="curve" smooth="yes"/>
      <point x="767" y="725" type="line"/>
      <point x="860" y="725" type="line"/>
      <point x="860" y="750" type="line"/>
      <point x="640" y="750" type="line"/>
    </contour>
  </outline>
</glyph>
<glyph name="W" format="2">
  <advance width="930"/>
  <unicode hex="0057"/>
  <outline>
    <contour>
      <point x="880" y="725" type="line" name="hr00"/>
      <point x="880" y="750" type="line"/>
      <point x="50" y="750" type="line"/>
      <point x="50" y="725" type="line"/>
      <point x="134" y="725" type="line"/>
      <point x="221" y="0" type="line"/>
      <point x="376" y="0" type="line"/>
      <point x="470" y="440" type="line"/>
      <point x="552" y="0" type="line"/>
      <point x="708" y="0" type="line"/>
      <point x="799" y="725" type="line"/>
    </contour>
    <contour>
      <point x="500" y="725" type="line"/>
      <point x="347" y="9" type="line"/>
      <point x="261" y="725" type="line"/>
    </contour>
    <contour>
      <point x="531" y="725" type="line"/>
      <point x="768" y="725" type="line"/>
      <point x="678" y="9" type="line"/>
    </contour>
  </outline>
</glyph>
<glyph name="X" format="2">
  <advance width="930"/>
  <unicode hex="0058"/>
  <outline>
    <contour>
      <point x="70" y="725" type="line" name="hr00"/>
      <point x="156" y="725" type="line"/>
      <point x="403" y="361" type="line"/>
      <point x="159" y="25" type="line"/>
      <point x="70" y="25" type="line"/>
      <point x="70" y="0" type="line"/>
      <point x="420" y="0" type="line"/>
      <point x="420" y="25" type="line"/>
      <point x="193" y="25" type="line"/>
      <point x="419" y="337" type="line"/>
      <point x="630" y="25" type="line"/>
      <point x="538" y="25" type="line"/>
      <point x="538" y="0" type="line"/>
      <point x="860" y="0" type="line"/>
      <point x="860" y="25" type="line"/>
      <point x="782" y="25" type="line"/>
      <point x="530" y="399" type="line"/>
      <point x="765" y="725" type="line"/>
      <point x="860" y="725" type="line"/>
      <point x="860" y="750" type="line"/>
      <point x="542" y="750" type="line"/>
      <point x="542" y="725" type="line"/>
      <point x="732" y="725" type="line"/>
      <point x="514" y="423" type="line"/>
      <point x="310" y="725" type="line"/>
      <point x="424" y="725" type="line"/>
      <point x="424" y="750" type="line"/>
      <point x="70" y="750" type="line"/>
    </contour>
  </outline>
</glyph>
<glyph name="bracketleft" format="2">
  <advance width="465"/>
  <unicode hex="005B"/>
  <outline>
    <contour>
      <point x="129" y="-80" type="line" name="hr00"/>
      <point x="434" y="-80" type="line"/>
      <point x="434" y="-53" type="line"/>
      <point x="156" y="-53" type="line"/>
      <point x="156" y="803" type="line"/>
      <point x="434" y="803" type="line"/>
      <point x="434" y="830" type="line"/>
      <point x="129" y="830" type="line"/>
    </contour>
  </outline>
</glyph>
<glyph name="a" format="2">
  <advance width="930"/>
  <unicode hex="0061"/>
  <outline>
    <contour>
      <point x="855" y="119" type="curve" name="hr01"/>
      <point x="855" y="195" type="line"/>
      <point x="830" y="195" type="line"/>
      <point x="830" y="121" type="line" smooth="yes"/>
      <point x="830" y="45"/>
      <point x="821" y="18"/>
      <point x="781" y="18" type="curve" smooth="yes"/>
      <point x="755" y="18"/>
      <point x="741" y="53"/>
      <point x="741" y="119" type="curve" smooth="yes"/>
      <point x="741" y="527" type="line" smooth="yes"/>
      <point x="741" y="674"/>
      <point x="652" y="770"/>
      <point x="450" y="770" type="curve" smooth="yes"/>
      <point x="315" y="770"/>
      <point x="205" y="695"/>
      <point x="158" y="568" type="curve"/>
      <point x="158" y="750" type="line"/>
      <point x="133" y="750" type="line"/>
      <point x="133" y="397" type="line"/>
      <point x="158" y="397" type="line"/>
      <point x="158" y="419" type="line" smooth="yes"/>
      <point x="158" y="632"/>
      <point x="297" y="743"/>
      <point x="448" y="743" type="curve" smooth="yes"/>
      <point x="580" y="743"/>
      <point x="613" y="688"/>
      <point x="613" y="547" type="curve" smooth="yes"/>
      <point x="613" y="545" type="line" smooth="yes"/>
      <point x="613" y="481"/>
      <point x="516" y="451"/>
      <point x="412" y="407" type="curve" smooth="yes"/>
      <point x="271" y="348"/>
      <point x="108" y="285"/>
      <point x="108" y="156" type="curve" smooth="yes" name="hr02"/>
      <point x="108" y="58"/>
      <point x="174" y="-20"/>
      <point x="336" y="-20" type="curve" smooth="yes"/>
      <point x="454" y="-20"/>
      <point x="570" y="72"/>
      <point x="613" y="170" type="curve"/>
      <point x="613" y="121" type="line" smooth="yes"/>
      <point x="613" y="29"/>
      <point x="654" y="-20"/>
      <point x="746" y="-20" type="curve" smooth="yes"/>
      <point x="834" y="-20"/>
      <point x="855" y="12"/>
    </contour>
    <contour>
      <point x="248" y="202" type="curve" smooth="yes" name="hr04"/>
      <point x="248" y="301"/>
      <point x="300" y="331"/>
      <point x="422" y="382" type="curve" smooth="yes"/>
      <point x="520" y="424"/>
      <point x="582" y="448"/>
      <point x="613" y="484" type="curve"/>
      <point x="613" y="266" type="line" smooth="yes"/>
      <point x="613" y="160"/>
      <point x="491" y="19"/>
      <point x="366" y="19" type="curve" smooth="yes"/>
      <point x="265" y="19"/>
      <point x="248" y="92"/>
    </contour>
  </outline>
</glyph>
<glyph name="b" format="2">
  <advance width="930"/>
  <unicode hex="0062"/>
  <outline>
    <contour>
      <point x="75" y="725" type="line" name="hr00"/>
      <point x="166" y="725" type="line"/>
      <point x="166" y="-20" type="line"/>
      <point x="190" y="-20" type="line"/>
      <point x="291" y="89" type="line"/>
      <point x="324" y="20"/>
      <point x="390" y="-20"/>
      <point x="488" y="-20" type="curve" smooth="yes"/>
      <point x="707" y="-20"/>
      <point x="815" y="104"/>
      <point x="815" y="326" type="curve" smooth="yes"/>
      <point x="815" y="548"/>
      <point x="707" y="671"/>
      <point x="488" y="671" type="curve" smooth="yes"/>
      <point x="354" y="671"/>
      <point x="304" y="603"/>
      <point x="294" y="572" type="curve"/>
      <point x="294" y="725" type="line"/>
      <point x="787" y="725" type="line"/>
      <point x="787" y="750" type="line"/>
      <point x="75" y="750" type="line"/>
    </contour>
    <contour>
      <point x="489" y="7" type="curve" smooth="yes"/>
      <point x="329" y="7"/>
      <point x="294" y="108"/>
      <point x="294" y="242" type="curve" smooth="yes"/>
      <point x="294" y="457" type="line" smooth="yes"/>
      <point x="294" y="605"/>
      <point x="381" y="644"/>
      <point x="490" y="644" type="curve" smooth="yes"/>
      <point x="641" y="644"/>
      <point x="675" y="587"/>
      <point x="675" y="329" type="curve" smooth="yes"/>
      <point x="675" y="78"/>
      <point x="634" y="7"/>
    </contour>
  </outline>
</glyph>
<glyph name="d" format="2">
  <advance width="930"/>
  <unicode hex="0064"/>
  <outline>
    <contour>
      <point x="143" y="725" type="line" name="hr01"/>
      <point x="624" y="725" type="line"/>
      <point x="624" y="577" type="line"/>
      <point x="614" y="607"/>
      <point x="568" y="671"/>
      <point x="442" y="671" type="curve" smooth="yes"/>
      <point x="223" y="671"/>
      <point x="115" y="548"/>
      <point x="115" y="326" type="curve" smooth="yes"/>
      <point x="115" y="104"/>
      <point x="223" y="-20"/>
      <point x="442" y="-20" type="curve" smooth="yes"/>
      <point x="531" y="-20"/>
      <point x="592" y="18"/>
      <point x="626" y="88" type="curve"/>
      <point x="626" y="-2"/>
      <point x="675" y="-20"/>
      <point x="758" y="-20" type="curve" smooth="yes" name="hr02"/>
      <point x="830" y="-20"/>
      <point x="847" y="12"/>
      <point x="847" y="118" type="curve" smooth="yes"/>
      <point x="847" y="194" type="line"/>
      <point x="822" y="194" type="line"/>
      <point x="822" y="120" type="line" smooth="yes"/>
      <point x="822" y="45"/>
      <point x="815" y="18"/>
      <point x="785" y="18" type="curve" smooth="yes"/>
      <point x="762" y="18"/>
      <point x="752" y="33"/>
      <point x="752" y="98" type="curve" smooth="yes"/>
      <point x="752" y="725" type="line"/>
      <point x="855" y="725" type="line"/>
      <point x="855" y="750" type="line"/>
      <point x="143" y="750" type="line"/>
    </contour>
    <contour>
      <point x="441" y="7" type="curve" smooth="yes" name="hr03"/>
      <point x="296" y="7"/>
      <point x="255" y="78"/>
      <point x="255" y="329" type="curve" smooth="yes"/>
      <point x="255" y="587"/>
      <point x="289" y="644"/>
      <point x="440" y="644" type="curve" smooth="yes"/>
      <point x="542" y="644"/>
      <point x="624" y="605"/>
      <point x="624" y="457" type="curve" smooth="yes"/>
      <point x="624" y="242" type="line" smooth="yes"/>
      <point x="624" y="108"/>
      <point x="591" y="7"/>
    </contour>
  </outline>
</glyph>
<glyph name="f" format="2">
  <advance width="930"/>
  <unicode hex="0066"/>
  <outline>
    <contour>
      <point x="840" y="25" type="line" name="hr00"/>
      <point x="418" y="25" type="line"/>
      <point x="418" y="189" type="line"/>
      <point x="840" y="189" type="line"/>
      <point x="840" y="214" type="line"/>
      <point x="418" y="214" type="line"/>
      <point x="418" y="220" type="line"/>
      <point x="441" y="401"/>
      <point x="811" y="362"/>
      <point x="811" y="586" type="curve" smooth="yes"/>
      <point x="811" y="702"/>
      <point x="733" y="770"/>
      <point x="601" y="770" type="curve" smooth="yes"/>
      <point x="403" y="770"/>
      <point x="290" y="653"/>
      <point x="290" y="413" type="curve" smooth="yes"/>
      <point x="290" y="214" type="line"/>
      <point x="90" y="214" type="line"/>
      <point x="90" y="189" type="line"/>
      <point x="290" y="189" type="line"/>
      <point x="290" y="25" type="line"/>
      <point x="91" y="25" type="line"/>
      <point x="91" y="0" type="line"/>
      <point x="840" y="0" type="line"/>
    </contour>
    <contour>
      <point x="418" y="413" type="line" smooth="yes"/>
      <point x="418" y="661"/>
      <point x="476" y="743"/>
      <point x="603" y="743" type="curve" smooth="yes"/>
      <point x="704" y="743"/>
      <point x="783" y="694"/>
      <point x="783" y="586" type="curve" smooth="yes"/>
      <point x="783" y="403"/>
      <point x="489" y="416"/>
      <point x="418" y="282" type="curve"/>
    </contour>
  </outline>
</glyph>
<glyph name="g" format="2">
  <advance width="930"/>
  <unicode hex="0067"/>
  <outline>
    <contour>
      <point x="784" y="266" type="curve" name="hr01"/>
      <point x="784" y="770" type="line"/>
      <point x="760" y="770" type="line"/>
      <point x="659" y="661" type="line"/>
      <point x="626" y="732"/>
      <point x="555" y="770"/>
      <point x="452" y="770" type="curve" smooth="yes"/>
      <point x="226" y="770"/>
      <point x="115" y="676"/>
      <point x="115" y="504" type="curve" smooth="yes" name="hr02"/>
      <point x="115" y="378"/>
      <point x="181" y="295"/>
      <point x="314" y="263" type="curve"/>
      <point x="184" y="248"/>
      <point x="106" y="210"/>
      <point x="106" y="122" type="curve" smooth="yes" name="hr03"/>
      <point x="106" y="36"/>
      <point x="146" y="-20"/>
      <point x="407" y="-20" type="curve" smooth="yes"/>
      <point x="664" y="-20"/>
      <point x="784" y="47"/>
    </contour>
    <contour>
      <point x="451" y="743" type="curve" smooth="yes" name="hr04"/>
      <point x="619" y="743"/>
      <point x="656" y="643"/>
      <point x="656" y="508" type="curve" smooth="yes"/>
      <point x="656" y="463" type="line" smooth="yes"/>
      <point x="656" y="315"/>
      <point x="564" y="276"/>
      <point x="450" y="276" type="curve" smooth="yes"/>
      <point x="291" y="276"/>
      <point x="255" y="317"/>
      <point x="255" y="501" type="curve" smooth="yes"/>
      <point x="255" y="691"/>
      <point x="298" y="743"/>
    </contour>
    <contour>
      <point x="133" y="122" type="curve" smooth="yes" name="hr05"/>
      <point x="133" y="220"/>
      <point x="303" y="249"/>
      <point x="452" y="249" type="curve" smooth="yes"/>
      <point x="593" y="249"/>
      <point x="646" y="313"/>
      <point x="656" y="343" type="curve"/>
      <point x="656" y="251" type="line" smooth="yes"/>
      <point x="656" y="43"/>
      <point x="593" y="7"/>
      <point x="407" y="7" type="curve" smooth="yes"/>
      <point x="171" y="7"/>
      <point x="133" y="44"/>
    </contour>
  </outline>
</glyph>
<glyph name="h" format="2">
  <advance width="930"/>
  <unicode hex="0068"/>
  <outline>
    <contour>
      <point x="184" y="25" type="line" name="hr01"/>
      <point x="80" y="25" type="line"/>
      <point x="80" y="0" type="line"/>
      <point x="860" y="0" type="line"/>
      <point x="860" y="25" type="line"/>
      <point x="755" y="25" type="line" name="hr02"/>
      <point x="755" y="110" type="line" smooth="yes"/>
      <point x="755" y="297"/>
      <point x="650" y="378"/>
      <point x="484" y="378" type="curve" smooth="yes"/>
      <point x="475" y="378"/>
      <point x="466" y="377"/>
      <point x="455" y="376" type="curve"/>
      <point x="594" y="429"/>
      <point x="770" y="456"/>
      <point x="770" y="598" type="curve" smooth="yes" name="hr03"/>
      <point x="770" y="708"/>
      <point x="671" y="770"/>
      <point x="504" y="770" type="curve" smooth="yes"/>
      <point x="282" y="770"/>
      <point x="184" y="653"/>
      <point x="184" y="413" type="curve" smooth="yes"/>
    </contour>
    <contour>
      <point x="312" y="413" type="line" smooth="yes"/>
      <point x="312" y="661"/>
      <point x="347" y="743"/>
      <point x="506" y="743" type="curve" smooth="yes"/>
      <point x="639" y="743"/>
      <point x="743" y="703"/>
      <point x="743" y="598" type="curve" smooth="yes"/>
      <point x="743" y="473"/>
      <point x="568" y="447"/>
      <point x="439" y="395" type="curve" smooth="yes"/>
      <point x="373" y="368"/>
      <point x="330" y="346"/>
      <point x="312" y="313" type="curve"/>
    </contour>
    <contour>
      <point x="312" y="25" type="line"/>
      <point x="312" y="180" type="line" smooth="yes"/>
      <point x="312" y="311"/>
      <point x="359" y="353"/>
      <point x="467" y="353" type="curve" smooth="yes"/>
      <point x="596" y="353"/>
      <point x="627" y="308"/>
      <point x="627" y="125" type="curve" smooth="yes" name="hr04"/>
      <point x="627" y="25" type="line"/>
    </contour>
  </outline>
</glyph>
<glyph name="k" format="2">
  <advance width="930"/>
  <unicode hex="006B"/>
  <outline>
    <contour>
      <point x="870" y="25" type="line" name="hr01"/>
      <point x="765" y="25" type="line" name="hr02"/>
      <point x="765" y="51" type="line" smooth="yes"/>
      <point x="765" y="191"/>
      <point x="698" y="254"/>
      <point x="579" y="271" type="curve"/>
      <point x="574" y="330"/>
      <point x="552" y="378"/>
      <point x="469" y="378" type="curve" smooth="yes"/>
      <point x="465" y="378"/>
      <point x="461" y="378"/>
      <point x="458" y="378" type="curve"/>
      <point x="604" y="430"/>
      <point x="780" y="459"/>
      <point x="780" y="598" type="curve" smooth="yes" name="hr03"/>
      <point x="780" y="708"/>
      <point x="677" y="770"/>
      <point x="504" y="770" type="curve" smooth="yes"/>
      <point x="282" y="770"/>
      <point x="184" y="653"/>
      <point x="184" y="413" type="curve" smooth="yes"/>
      <point x="184" y="25" type="line"/>
      <point x="80" y="25" type="line"/>
      <point x="80" y="0" type="line"/>
      <point x="870" y="0" type="line"/>
    </contour>
    <contour>
      <point x="506" y="743" type="curve" smooth="yes"/>
      <point x="645" y="743"/>
      <point x="753" y="703"/>
      <point x="753" y="598" type="curve" smooth="yes"/>
      <point x="753" y="473"/>
      <point x="572" y="448"/>
      <point x="439" y="395" type="curve" smooth="yes"/>
      <point x="373" y="368"/>
      <point x="330" y="346"/>
      <point x="312" y="313" type="curve"/>
      <point x="312" y="413" type="line" smooth="yes"/>
      <point x="312" y="661"/>
      <point x="347" y="743"/>
    </contour>
    <contour>
      <point x="312" y="25" type="line"/>
      <point x="312" y="180" type="line" smooth="yes"/>
      <point x="312" y="311"/>
      <point x="360" y="353"/>
      <point x="469" y="353" type="curve" smooth="yes"/>
      <point x="530" y="353"/>
      <point x="546" y="323"/>
      <point x="551" y="274" type="curve"/>
      <point x="536" y="275"/>
      <point x="519" y="276"/>
      <point x="502" y="276" type="curve" smooth="yes"/>
      <point x="412" y="276"/>
      <point x="355" y="244"/>
      <point x="355" y="172" type="curve" smooth="yes"/>
      <point x="355" y="111"/>
      <point x="408" y="72"/>
      <point x="475" y="72" type="curve" smooth="yes"/>
      <point x="539" y="72"/>
      <point x="581" y="110"/>
      <point x="581" y="203" type="curve" smooth="yes"/>
      <point x="581" y="218"/>
      <point x="581" y="233"/>
      <point x="581" y="247" type="curve"/>
      <point x="629" y="236"/>
      <point x="637" y="201"/>
      <point x="637" y="90" type="curve" smooth="yes" name="hr04"/>
      <point x="637" y="25" type="line"/>
    </contour>
    <contour>
      <point x="383" y="173" type="curve" smooth="yes"/>
      <point x="383" y="230"/>
      <point x="422" y="252"/>
      <point x="502" y="252" type="curve" smooth="yes"/>
      <point x="521" y="252"/>
      <point x="538" y="252"/>
      <point x="553" y="251" type="curve"/>
      <point x="553" y="237"/>
      <point x="553" y="222"/>
      <point x="553" y="206" type="curve" smooth="yes"/>
      <point x="553" y="125"/>
      <point x="529" y="99"/>
      <point x="475" y="99" type="curve" smooth="yes"/>
      <point x="418" y="99"/>
      <point x="383" y="123"/>
    </contour>
  </outline>
</glyph>
<glyph name="m" format="2">
  <advance width="930"/>
  <unicode hex="006D"/>
  <outline>
    <contour>
      <point x="70" y="725" type="line" name="hr01"/>
      <point x="154" y="725" type="line"/>
      <point x="154" y="25" type="line"/>
      <point x="70" y="25" type="line"/>
      <point x="70" y="0" type="line"/>
      <point x="874" y="0" type="line"/>
      <point x="874" y="25" type="line"/>
      <point x="794" y="25" type="line"/>
      <point x="794" y="532" type="line" smooth="yes"/>
      <point x="794" y="680"/>
      <point x="738" y="770"/>
      <point x="635" y="770" type="curve" smooth="yes" name="hr02"/>
      <point x="575" y="770"/>
      <point x="541" y="737"/>
      <point x="521" y="644" type="curve"/>
      <point x="500" y="724"/>
      <point x="453" y="770"/>
      <point x="384" y="770" type="curve" smooth="yes"/>
      <point x="322" y="770"/>
      <point x="283" y="735"/>
      <point x="262" y="639" type="curve"/>
      <point x="262" y="750" type="line" name="hr03"/>
      <point x="70" y="750" type="line"/>
    </contour>
    <contour>
      <point x="274" y="452" type="line" smooth="yes"/>
      <point x="274" y="650"/>
      <point x="312" y="734"/>
      <point x="358" y="734" type="curve" smooth="yes" name="hr04"/>
      <point x="399" y="734"/>
      <point x="414" y="684"/>
      <point x="414" y="532" type="curve" smooth="yes"/>
      <point x="414" y="25" type="line"/>
      <point x="274" y="25" type="line"/>
    </contour>
    <contour>
      <point x="534" y="452" type="line" smooth="yes"/>
      <point x="534" y="649"/>
      <point x="567" y="734"/>
      <point x="610" y="734" type="curve" smooth="yes"/>
      <point x="656" y="734"/>
      <point x="674" y="685"/>
      <point x="674" y="532" type="curve" smooth="yes"/>
      <point x="674" y="25" type="line"/>
      <point x="534" y="25" type="line"/>
    </contour>
  </outline>
</glyph>
<glyph name="n" format="2">
  <advance width="930"/>
  <unicode hex="006E"/>
  <outline>
    <contour>
      <point x="90" y="725" type="line" name="hr01"/>
      <point x="194" y="725" type="line"/>
      <point x="194" y="25" type="line"/>
      <point x="90" y="25" type="line"/>
      <point x="90" y="0" type="line"/>
      <point x="855" y="0" type="line"/>
      <point x="855" y="25" type="line"/>
      <point x="751" y="25" type="line"/>
      <point x="751" y="467" type="line" smooth="yes"/>
      <point x="751" y="702"/>
      <point x="674" y="770"/>
      <point x="506" y="770" type="curve" smooth="yes" name="hr02"/>
      <point x="409" y="770"/>
      <point x="341" y="729"/>
      <point x="312" y="606" type="curve"/>
      <point x="312" y="750" type="line" name="hr03"/>
      <point x="90" y="750" type="line"/>
    </contour>
    <contour>
      <point x="322" y="431" type="line" smooth="yes"/>
      <point x="322" y="645"/>
      <point x="364" y="737"/>
      <point x="490" y="737" type="curve" smooth="yes" name="hr04"/>
      <point x="595" y="737"/>
      <point x="623" y="677"/>
      <point x="623" y="426" type="curve" smooth="yes"/>
      <point x="623" y="25" type="line"/>
      <point x="322" y="25" type="line"/>
    </contour>
  </outline>
</glyph>
<glyph name="p" format="2">
  <advance width="930"/>
  <unicode hex="0070"/>
  <outline>
    <contour>
      <point x="90" y="725" type="line" name="hr01"/>
      <point x="194" y="725" type="line"/>
      <point x="194" y="25" type="line"/>
      <point x="95" y="25" type="line"/>
      <point x="95" y="0" type="line"/>
      <point x="579" y="0" type="line"/>
      <point x="579" y="25" type="line"/>
      <point x="322" y="25" type="line"/>
      <point x="322" y="173" type="line"/>
      <point x="332" y="143"/>
      <point x="376" y="79"/>
      <point x="498" y="79" type="curve" smooth="yes"/>
      <point x="710" y="79"/>
      <point x="815" y="202"/>
      <point x="815" y="424" type="curve" smooth="yes"/>
      <point x="815" y="646"/>
      <point x="710" y="770"/>
      <point x="498" y="770" type="curve" smooth="yes" name="hr02"/>
      <point x="409" y="770"/>
      <point x="339" y="728"/>
      <point x="312" y="631" type="curve"/>
      <point x="312" y="750" type="line" name="hr03"/>
      <point x="90" y="750" type="line"/>
    </contour>
    <contour>
      <point x="499" y="743" type="curve" smooth="yes" name="hr04"/>
      <point x="636" y="743"/>
      <point x="675" y="672"/>
      <point x="675" y="421" type="curve" smooth="yes"/>
      <point x="675" y="163"/>
      <point x="643" y="106"/>
      <point x="500" y="106" type="curve" smooth="yes"/>
      <point x="401" y="106"/>
      <point x="322" y="145"/>
      <point x="322" y="293" type="curve" smooth="yes"/>
      <point x="322" y="508" type="line" smooth="yes"/>
      <point x="322" y="642"/>
      <point x="354" y="743"/>
    </contour>
  </outline>
</glyph>
<glyph name="q" format="2">
  <advance width="930"/>
  <unicode hex="0071"/>
  <outline>
    <contour>
      <point x="855" y="25" type="line" name="hr00"/>
      <point x="764" y="25" type="line"/>
      <point x="764" y="750" type="line"/>
      <point x="740" y="750" type="line"/>
      <point x="619" y="639" type="line"/>
      <point x="650" y="634" type="line"/>
      <point x="600" y="747"/>
      <point x="539" y="771"/>
      <point x="424" y="771" type="curve" smooth="yes"/>
      <point x="223" y="771"/>
      <point x="115" y="647"/>
      <point x="115" y="424" type="curve" smooth="yes"/>
      <point x="115" y="202"/>
      <point x="223" y="79"/>
      <point x="442" y="79" type="curve" smooth="yes"/>
      <point x="576" y="79"/>
      <point x="626" y="143"/>
      <point x="636" y="173" type="curve"/>
      <point x="636" y="25" type="line"/>
      <point x="143" y="25" type="line"/>
      <point x="143" y="0" type="line"/>
      <point x="855" y="0" type="line"/>
    </contour>
    <contour>
      <point x="441" y="744" type="curve" smooth="yes"/>
      <point x="601" y="744"/>
      <point x="636" y="643"/>
      <point x="636" y="508" type="curve" smooth="yes"/>
      <point x="636" y="293" type="line" smooth="yes"/>
      <point x="636" y="145"/>
      <point x="549" y="106"/>
      <point x="440" y="106" type="curve" smooth="yes"/>
      <point x="289" y="106"/>
      <point x="255" y="163"/>
      <point x="255" y="421" type="curve" smooth="yes"/>
      <point x="255" y="673"/>
      <point x="296" y="744"/>
    </contour>
  </outline>
</glyph>
<glyph name="u" format="2">
  <advance width="930"/>
  <unicode hex="0075"/>
  <outline>
    <contour>
      <point x="75" y="725" type="line" name="hr01"/>
      <point x="179" y="725" type="line"/>
      <point x="179" y="283" type="line" smooth="yes"/>
      <point x="179" y="48"/>
      <point x="256" y="-20"/>
      <point x="424" y="-20" type="curve" smooth="yes"/>
      <point x="521" y="-20"/>
      <point x="589" y="21"/>
      <point x="618" y="144" type="curve"/>
      <point x="618" y="136" type="line" smooth="yes"/>
      <point x="618" y="9"/>
      <point x="660" y="-20"/>
      <point x="742" y="-20" type="curve" smooth="yes" name="hr02"/>
      <point x="825" y="-20"/>
      <point x="845" y="12"/>
      <point x="845" y="119" type="curve" smooth="yes"/>
      <point x="845" y="195" type="line"/>
      <point x="820" y="195" type="line"/>
      <point x="820" y="121" type="line" smooth="yes"/>
      <point x="820" y="45"/>
      <point x="812" y="18"/>
      <point x="780" y="18" type="curve" smooth="yes"/>
      <point x="750" y="18"/>
      <point x="736" y="49"/>
      <point x="736" y="119" type="curve" smooth="yes"/>
      <point x="736" y="750" type="line"/>
      <point x="75" y="750" type="line"/>
    </contour>
    <contour>
      <point x="608" y="319" type="line" smooth="yes"/>
      <point x="608" y="105"/>
      <point x="566" y="13"/>
      <point x="440" y="13" type="curve" smooth="yes" name="hr03"/>
      <point x="335" y="13"/>
      <point x="307" y="73"/>
      <point x="307" y="324" type="curve" smooth="yes"/>
      <point x="307" y="725" type="line"/>
      <point x="608" y="725" type="line"/>
    </contour>
  </outline>
</glyph>
<glyph name="w" format="2">
  <advance width="930"/>
  <unicode hex="0077"/>
  <outline>
    <contour>
      <point x="472" y="601" type="curve" smooth="yes" name="hr01"/>
      <point x="472" y="691"/>
      <point x="527" y="742"/>
      <point x="615" y="742" type="curve" smooth="yes" name="hr02"/>
      <point x="699" y="742"/>
      <point x="754" y="668"/>
      <point x="755" y="494" type="curve"/>
      <point x="722" y="473"/>
      <point x="685" y="463"/>
      <point x="647" y="463" type="curve" smooth="yes"/>
      <point x="517" y="463"/>
      <point x="472" y="513"/>
    </contour>
    <contour>
      <point x="454" y="201" type="line" smooth="yes" name="hr04"/>
      <point x="454" y="62"/>
      <point x="433" y="11"/>
      <point x="370" y="11" type="curve" smooth="yes"/>
      <point x="296" y="11"/>
      <point x="297" y="66"/>
      <point x="297" y="280" type="curve" smooth="yes"/>
      <point x="297" y="725" type="line"/>
      <point x="406" y="725" type="line"/>
      <point x="406" y="750" type="line"/>
      <point x="70" y="750" type="line"/>
      <point x="70" y="725" type="line"/>
      <point x="169" y="725" type="line"/>
      <point x="169" y="280" type="line" smooth="yes"/>
      <point x="169" y="69"/>
      <point x="207" y="-20"/>
      <point x="354" y="-20" type="curve" smooth="yes"/>
      <point x="413" y="-20"/>
      <point x="449" y="1"/>
      <point x="466" y="61" type="curve"/>
      <point x="482" y="4"/>
      <point x="529" y="-20"/>
      <point x="608" y="-20" type="curve" smooth="yes"/>
      <point x="788" y="-20"/>
      <point x="784" y="270"/>
      <point x="784" y="481" type="curve"/>
      <point x="848" y="529"/>
      <point x="890" y="617"/>
      <point x="890" y="750" type="curve"/>
      <point x="861" y="750" type="line"/>
      <point x="864" y="638"/>
      <point x="832" y="561"/>
      <point x="784" y="516" type="curve"/>
      <point x="778" y="691"/>
      <point x="709" y="770"/>
      <point x="614" y="770" type="curve" smooth="yes" name="hr05"/>
      <point x="511" y="770"/>
      <point x="444" y="701"/>
      <point x="444" y="601" type="curve" smooth="yes"/>
      <point x="444" y="501"/>
      <point x="504" y="435"/>
      <point x="635" y="435" type="curve" smooth="yes"/>
      <point x="678" y="435"/>
      <point x="719" y="444"/>
      <point x="755" y="463" type="curve"/>
      <point x="755" y="266"/>
      <point x="750" y="11"/>
      <point x="624" y="11" type="curve" smooth="yes"/>
      <point x="580" y="11"/>
      <point x="581" y="49"/>
      <point x="581" y="201" type="curve" smooth="yes" name="hr06"/>
      <point x="581" y="404" type="line"/>
      <point x="352" y="404" type="line"/>
      <point x="352" y="376" type="line"/>
      <point x="454" y="376" type="line"/>
    </contour>
  </outline>
</glyph>
<glyph name="y" format="2">
  <advance width="930"/>
  <unicode hex="0079"/>
  <outline>
    <contour>
      <point x="70" y="725" type="line" name="hr00"/>
      <point x="154" y="725" type="line"/>
      <point x="411" y="408" type="line"/>
      <point x="292" y="343"/>
      <point x="150" y="323"/>
      <point x="150" y="169" type="curve" smooth="yes"/>
      <point x="150" y="37"/>
      <point x="252" y="-20"/>
      <point x="436" y="-20" type="curve" smooth="yes"/>
      <point x="641" y="-20"/>
      <point x="736" y="67"/>
      <point x="736" y="246" type="curve" smooth="yes"/>
      <point x="736" y="725" type="line"/>
      <point x="850" y="725" type="line"/>
      <point x="850" y="750" type="line"/>
      <point x="70" y="750" type="line"/>
    </contour>
    <contour>
      <point x="709" y="246" type="line" smooth="yes"/>
      <point x="709" y="237"/>
      <point x="709" y="229"/>
      <point x="708" y="221" type="curve"/>
      <point x="320" y="725" type="line"/>
      <point x="709" y="725" type="line"/>
    </contour>
    <contour>
      <point x="177" y="169" type="curve" smooth="yes"/>
      <point x="177" y="305"/>
      <point x="306" y="327"/>
      <point x="428" y="388" type="curve"/>
      <point x="669" y="91" type="line"/>
      <point x="627" y="32"/>
      <point x="550" y="7"/>
      <point x="434" y="7" type="curve" smooth="yes"/>
      <point x="268" y="7"/>
      <point x="177" y="55"/>
    </contour>
  </outline>
</glyph>
<glyph name="braceright" format="2">
  <advance width="465"/>
  <unicode hex="007D"/>
  <outline>
    <contour>
      <point x="393" y="388" type="line" name="hr00"/>
      <point x="340" y="388" type="line" smooth="yes"/>
      <point x="237" y="388"/>
      <point x="185" y="417"/>
      <point x="185" y="479" type="curve" smooth="yes"/>
      <point x="185" y="554"/>
      <point x="295" y="615"/>
      <point x="295" y="701" type="curve" smooth="yes"/>
      <point x="295" y="779"/>
      <point x="215" y="830"/>
      <point x="21" y="830" type="curve"/>
      <point x="21" y="803" type="line"/>
      <point x="182" y="803"/>
      <point x="265" y="765"/>
      <point x="265" y="701" type="curve" smooth="yes"/>
      <point x="265" y="631"/>
      <point x="156" y="567"/>
      <point x="156" y="478" type="curve" smooth="yes"/>
      <point x="156" y="423"/>
      <point x="192" y="388"/>
      <point x="263" y="375" type="curve"/>
      <point x="192" y="361"/>
      <point x="156" y="326"/>
      <point x="156" y="271" type="curve" smooth="yes"/>
      <point x="156" y="182"/>
      <point x="265" y="118"/>
      <point x="265" y="48" type="curve" smooth="yes"/>
      <point x="265" y="-16"/>
      <point x="182" y="-54"/>
      <point x="21" y="-54" type="curve"/>
      <point x="21" y="-81" type="line"/>
      <point x="215" y="-81"/>
      <point x="295" y="-30"/>
      <point x="295" y="48" type="curve" smooth="yes"/>
      <point x="295" y="134"/>
      <point x="185" y="195"/>
      <point x="185" y="270" type="curve" smooth="yes"/>
      <point x="185" y="332"/>
      <point x="237" y="361"/>
      <point x="340" y="361" type="curve" smooth="yes"/>
      <point x="393" y="361" type="line"/>
    </contour>
  </outline>
</glyph>
<glyph name="acute" format="2">
  <advance width="600"/>
  <unicode hex="00B4"/>
  <outline>
    <contour>
      <point x="529" y="917" type="line" name="hr00"/>
      <point x="401" y="855"/>
      <point x="295" y="828"/>
      <point x="64" y="815" type="curve"/>
      <point x="64" y="800" type="line"/>
      <point x="295" y="800"/>
      <point x="407" y="801"/>
      <point x="529" y="854" type="curve"/>
    </contour>
  </outline>
</glyph>
<glyph name="periodcentered" format="2">
  <advance width="465"/>
  <unicode hex="00B7"/>
  <outline>
    <contour>
      <point x="231" y="505" type="curve" smooth="yes" name="hr00"/>
      <point x="148" y="505"/>
      <point x="107" y="458"/>
      <point x="107" y="373" type="curve" smooth="yes"/>
      <point x="107" y="296"/>
      <point x="150" y="255"/>
      <point x="231" y="255" type="curve" smooth="yes"/>
      <point x="313" y="255"/>
      <point x="357" y="296"/>
      <point x="357" y="373" type="curve" smooth="yes"/>
      <point x="357" y="458"/>
      <point x="315" y="505"/>
    </contour>
    <contour>
      <point x="231" y="478" type="curve" smooth="yes"/>
      <point x="300" y="478"/>
      <point x="330" y="446"/>
      <point x="330" y="372" type="curve" smooth="yes"/>
      <point x="330" y="310"/>
      <point x="298" y="282"/>
      <point x="231" y="282" type="curve" smooth="yes"/>
      <point x="165" y="282"/>
      <point x="134" y="310"/>
      <point x="134" y="372" type="curve" smooth="yes"/>
      <point x="134" y="446"/>
      <point x="163" y="478"/>
    </contour>
  </outline>
</glyph>
<glyph name="guillemotright" format="2">
  <advance width="465"/>
  <unicode hex="00BB"/>
  <outline>
    <contour>
      <point x="238" y="162" type="curve" name="hr00"/>
      <point x="253" y="162" type="line"/>
      <point x="280" y="269"/>
      <point x="316" y="314"/>
      <point x="395" y="397" type="curve"/>
      <point x="316" y="480"/>
      <point x="280" y="525"/>
      <point x="253" y="632" type="curve"/>
      <point x="238" y="632" type="line"/>
      <point x="258" y="525"/>
      <point x="276" y="476"/>
      <point x="337" y="397" type="curve"/>
      <point x="276" y="318"/>
      <point x="258" y="269"/>
    </contour>
    <contour>
      <point x="108" y="162" type="curve"/>
      <point x="123" y="162" type="line"/>
      <point x="150" y="269"/>
      <point x="186" y="314"/>
      <point x="265" y="397" type="curve"/>
      <point x="186" y="480"/>
      <point x="150" y="525"/>
      <point x="123" y="632" type="curve"/>
      <point x="108" y="632" type="line"/>
      <point x="128" y="525"/>
      <point x="146" y="476"/>
      <point x="207" y="397" type="curve"/>
      <point x="146" y="318"/>
      <point x="128" y="269"/>
    </contour>
  </outline>
</glyph>
<glyph name="questiondown" format="2">
  <advance width="930"/>
  <unicode hex="00BF"/>
  <outline>
    <contour>
      <point x="451" y="770" type="line" name="hr00"/>
      <point x="451" y="550" type="line"/>
      <point x="479" y="550" type="line"/>
      <point x="479" y="770" type="line"/>
    </contour>
    <contour>
      <point x="760" y="291" type="line" smooth="yes"/>
      <point x="760" y="76"/>
      <point x="660" y="-23"/>
      <point x="507" y="-23" type="curve"/>
      <point x="356" y="-26"/>
      <point x="284" y="22"/>
      <point x="284" y="130" type="curve" smooth="yes"/>
      <point x="284" y="215"/>
      <point x="287" y="267"/>
      <point x="360" y="306" type="curve" smooth="yes"/>
      <point x="449" y="354"/>
      <point x="478" y="378"/>
      <point x="479" y="508" type="curve"/>
      <point x="450" y="508" type="line"/>
      <point x="450" y="395"/>
      <point x="435" y="372"/>
      <point x="347" y="330" type="curve" smooth="yes"/>
      <point x="238" y="278"/>
      <point x="144" y="272"/>
      <point x="144" y="135" type="curve" smooth="yes"/>
      <point x="144" y="11"/>
      <point x="282" y="-50"/>
      <point x="491" y="-50" type="curve" smooth="yes"/>
      <point x="634" y="-50"/>
      <point x="725" y="14"/>
      <point x="765" y="129" type="curve"/>
      <point x="765" y="-30" type="line"/>
      <point x="790" y="-30" type="line"/>
      <point x="790" y="323" type="line"/>
      <point x="760" y="323" type="line"/>
    </contour>
  </outline>
</glyph>
<glyph name="AE" format="2">
  <advance width="930"/>
  <unicode hex="00C6"/>
  <outline>
    <contour>
      <point x="180" y="725" type="line" name="hr01"/>
      <point x="301" y="725" type="line"/>
      <point x="130" y="25" type="line"/>
      <point x="60" y="25" type="line"/>
      <point x="60" y="0" type="line"/>
      <point x="276" y="0" type="line"/>
      <point x="276" y="25" type="line"/>
      <point x="161" y="25" type="line"/>
      <point x="203" y="195" type="line"/>
      <point x="430" y="195" type="line"/>
      <point x="463" y="25" type="line"/>
      <point x="380" y="25" type="line"/>
      <point x="380" y="0" type="line"/>
      <point x="800" y="0" type="line" name="hr02"/>
      <point x="800" y="289" type="line"/>
      <point x="775" y="289" type="line"/>
      <point x="775" y="194" type="line" smooth="yes"/>
      <point x="775" y="60"/>
      <point x="742" y="27"/>
      <point x="598" y="27" type="curve" smooth="yes"/>
      <point x="590" y="27" type="line"/>
      <point x="519" y="387" type="line"/>
      <point x="656" y="387" type="line"/>
      <point x="656" y="222" type="line"/>
      <point x="681" y="222" type="line"/>
      <point x="681" y="565" type="line"/>
      <point x="656" y="565" type="line"/>
      <point x="656" y="414" type="line"/>
      <point x="513" y="414" type="line"/>
      <point x="452" y="723" type="line"/>
      <point x="599" y="723" type="line" smooth="yes"/>
      <point x="729" y="723"/>
      <point x="756" y="694"/>
      <point x="756" y="566" type="curve" smooth="yes" name="hr03"/>
      <point x="756" y="461" type="line"/>
      <point x="781" y="461" type="line"/>
      <point x="781" y="750" type="line" name="hr04"/>
      <point x="180" y="750" type="line"/>
    </contour>
    <contour>
      <point x="209" y="222" type="line"/>
      <point x="328" y="709" type="line"/>
      <point x="424" y="222" type="line"/>
    </contour>
  </outline>
</glyph>
<glyph name="dotlessi" format="2">
  <advance width="930"/>
  <unicode hex="0131"/>
  <anchor x="466.0" y="550.0" name="top"/>
  <outline>
    <contour>
      <point x="529" y="0" type="line"/>
      <point x="401" y="0" type="line"/>
      <point x="401" y="590" type="line"/>
      <point x="529" y="590" type="line"/>
    </contour>
    <contour>
      <point x="839" y="25" type="line"/>
      <point x="839" y="0" type="line"/>
      <point x="507" y="0" type="line"/>
      <point x="507" y="25" type="line"/>
    </contour>
    <contour>
      <point x="423" y="0" type="line"/>
      <point x="90" y="0" type="line"/>
      <point x="90" y="25" type="line"/>
      <point x="423" y="25" type="line"/>
    </contour>
    <contour>
      <point x="90" y="565" type="line"/>
      <point x="90" y="590" type="line"/>
      <point x="428" y="590" type="line"/>
      <point x="428" y="565" type="line"/>
    </contour>
    <contour>
      <point x="840" y="590" type="line"/>
      <point x="840" y="565" type="line"/>
      <point x="507" y="565" type="line"/>
      <point x="507" y="590" type="line"/>
    </contour>
  </outline>
</glyph>
<glyph name="OE" format="2">
  <advance width="930"/>
  <unicode hex="0152"/>
  <outline>
    <contour>
      <point x="90" y="375" type="curve" smooth="yes" name="hr01"/>
      <point x="90" y="118"/>
      <point x="191" y="0"/>
      <point x="386" y="0" type="curve" smooth="yes"/>
      <point x="800" y="0" type="line" name="hr02"/>
      <point x="800" y="289" type="line"/>
      <point x="775" y="289" type="line"/>
      <point x="775" y="194" type="line" smooth="yes"/>
      <point x="775" y="60"/>
      <point x="742" y="27"/>
      <point x="598" y="27" type="curve" smooth="yes"/>
      <point x="559" y="27" type="line"/>
      <point x="559" y="367" type="line"/>
      <point x="676" y="367" type="line"/>
      <point x="676" y="202" type="line"/>
      <point x="701" y="202" type="line"/>
      <point x="701" y="545" type="line"/>
      <point x="676" y="545" type="line"/>
      <point x="676" y="394" type="line"/>
      <point x="559" y="394" type="line"/>
      <point x="559" y="723" type="line"/>
      <point x="599" y="723" type="line" smooth="yes"/>
      <point x="729" y="723"/>
      <point x="756" y="694"/>
      <point x="756" y="566" type="curve" smooth="yes" name="hr03"/>
      <point x="756" y="461" type="line"/>
      <point x="781" y="461" type="line"/>
      <point x="781" y="750" type="line"/>
      <point x="389" y="750" type="line" smooth="yes"/>
      <point x="191" y="750"/>
      <point x="90" y="632"/>
    </contour>
    <contour>
      <point x="406" y="26" type="line" smooth="yes"/>
      <point x="277" y="26"/>
      <point x="230" y="116"/>
      <point x="230" y="374" type="curve" smooth="yes"/>
      <point x="230" y="633"/>
      <point x="278" y="724"/>
      <point x="408" y="724" type="curve" smooth="yes"/>
      <point x="431" y="724" type="line"/>
      <point x="431" y="26" type="line"/>
    </contour>
  </outline>
</glyph>
<glyph name="caron" format="2">
  <advance width="600"/>
  <unicode hex="02C7"/>
  <outline>
    <contour>
      <point x="65" y="917" type="curve" name="hr00"/>
      <point x="65" y="902" type="line"/>
      <point x="172" y="885"/>
      <point x="223" y="853"/>
      <point x="300" y="780" type="curve"/>
      <point x="377" y="853"/>
      <point x="428" y="885"/>
      <point x="535" y="902" type="curve"/>
      <point x="535" y="917" type="line"/>
      <point x="428" y="907"/>
      <point x="372" y="893"/>
      <point x="300" y="838" type="curve"/>
      <point x="228" y="893"/>
      <point x="172" y="907"/>
    </contour>
  </outline>
</glyph>
<glyph name="dotaccent" format="2">
  <advance width="560"/>
  <unicode hex="02D9"/>
  <outline>
    <contour>
      <point x="280" y="800" type="curve" smooth="yes" name="hr00"/>
      <point x="334" y="800"/>
      <point x="359" y="811"/>
      <point x="359" y="833" type="curve" smooth="yes"/>
      <point x="359" y="856"/>
      <point x="334" y="870"/>
      <point x="280" y="870" type="curve" smooth="yes"/>
      <point x="226" y="870"/>
      <point x="201" y="856"/>
      <point x="201" y="833" type="curve" smooth="yes"/>
      <point x="201" y="811"/>
      <point x="226" y="800"/>
    </contour>
  </outline>
</glyph>
<glyph name="hungarumlaut" format="2">
  <advance width="600"/>
  <unicode hex="02DD"/>
  <outline>
    <contour>
      <point x="299" y="917" type="line" name="hr01"/>
      <point x="231" y="857"/>
      <point x="166" y="822"/>
      <point x="64" y="815" type="curve"/>
      <point x="64" y="800" type="line"/>
      <point x="172" y="800"/>
      <point x="233" y="809"/>
      <point x="299" y="854" type="curve"/>
    </contour>
    <contour>
      <point x="529" y="917" type="line" name="hr02"/>
      <point x="461" y="857"/>
      <point x="396" y="822"/>
      <point x="294" y="815" type="curve"/>
      <point x="294" y="800" type="line"/>
      <point x="402" y="800"/>
      <point x="463" y="809"/>
      <point x="529" y="854" type="curve"/>
    </contour>
  </outline>
</glyph>
<glyph name="Theta" format="2">
  <advance width="930"/>
  <unicode hex="0398"/>
  <outline>
    <contour>
      <point x="322" y="203" type="line"/>
      <point x="347" y="203" type="line"/>
      <point x="347" y="368" type="line"/>
      <point x="576" y="368" type="line"/>
      <point x="576" y="203" type="line"/>
      <point x="601" y="203" type="line"/>
      <point x="601" y="546" type="line"/>
      <point x="576" y="546" type="line"/>
      <point x="576" y="395" type="line"/>
      <point x="347" y="395" type="line"/>
      <point x="347" y="546" type="line"/>
      <point x="322" y="546" type="line"/>
    </contour>
    <component base="O"/>
  </outline>
</glyph>
<glyph name="alpha" format="2">
  <advance width="930"/>
  <unicode hex="03B1"/>
  <outline>
    <contour>
      <point x="421" y="744" type="curve" smooth="yes"/>
      <point x="557" y="744"/>
      <point x="613" y="648"/>
      <point x="613" y="518" type="curve" smooth="yes"/>
      <point x="613" y="194" type="line" smooth="yes"/>
      <point x="613" y="46"/>
      <point x="529" y="7"/>
      <point x="420" y="7" type="curve" smooth="yes"/>
      <point x="269" y="7"/>
      <point x="235" y="93"/>
      <point x="235" y="371" type="curve" smooth="yes"/>
      <point x="235" y="643"/>
      <point x="276" y="744"/>
    </contour>
    <contour>
      <point x="401" y="771" type="curve" smooth="yes"/>
      <point x="200" y="771"/>
      <point x="95.0" y="637.0"/>
      <point x="95" y="374" type="curve" smooth="yes"/>
      <point x="95" y="112"/>
      <point x="203" y="-20"/>
      <point x="422" y="-20" type="curve" smooth="yes"/>
      <point x="558.1047120418848" y="-20.0"/>
      <point x="605" y="49"/>
      <point x="616" y="82" type="curve"/>
      <point x="627.5433468197799" y="12.739919081320807"/>
      <point x="670" y="-20"/>
      <point x="746" y="-20" type="curve" smooth="yes" name="hr00"/>
      <point x="834" y="-20"/>
      <point x="855" y="12"/>
      <point x="855" y="119" type="curve" smooth="yes"/>
      <point x="855" y="195" type="line"/>
      <point x="830" y="195" type="line"/>
      <point x="830" y="121" type="line" smooth="yes"/>
      <point x="830" y="45"/>
      <point x="821" y="18"/>
      <point x="781" y="18" type="curve" smooth="yes"/>
      <point x="755" y="18"/>
      <point x="741" y="53"/>
      <point x="741" y="119" type="curve" smooth="yes"/>
      <point x="741" y="750" type="line"/>
      <point x="717" y="750" type="line"/>
      <point x="596" y="639" type="line"/>
      <point x="627" y="634" type="line"/>
      <point x="577" y="747"/>
      <point x="516" y="771"/>
    </contour>
  </outline>
</glyph>
<glyph name="beta" format="2">
  <advance width="930"/>
  <unicode hex="03B2"/>
  <outline>
    <contour>
      <point x="164" y="25" type="line" name="hr00"/>
      <point x="65" y="25" type="line"/>
      <point x="65" y="0" type="line"/>
      <point x="569" y="0" type="line"/>
      <point x="569" y="25" type="line"/>
      <point x="292" y="25" type="line"/>
      <point x="292" y="193" type="line"/>
      <point x="322" y="143"/>
      <point x="397" y="80"/>
      <point x="548" y="80" type="curve" smooth="yes"/>
      <point x="707" y="80"/>
      <point x="814" y="149"/>
      <point x="814" y="270" type="curve" smooth="yes"/>
      <point x="814" y="361"/>
      <point x="726" y="422"/>
      <point x="580" y="443" type="curve"/>
      <point x="670" y="451"/>
      <point x="770" y="491"/>
      <point x="770" y="593" type="curve" smooth="yes"/>
      <point x="770" y="721"/>
      <point x="599" y="770"/>
      <point x="478" y="770" type="curve" smooth="yes"/>
      <point x="386" y="770"/>
      <point x="164" y="736"/>
      <point x="164" y="495" type="curve" smooth="yes"/>
    </contour>
    <contour>
      <point x="292" y="508" type="line" smooth="yes"/>
      <point x="292" y="652"/>
      <point x="354.0" y="745.0"/>
      <point x="479" y="745" type="curve" smooth="yes"/>
      <point x="584.0" y="745.0"/>
      <point x="650.0" y="681.125"/>
      <point x="650" y="599" type="curve" smooth="yes"/>
      <point x="650" y="507"/>
      <point x="570" y="454"/>
      <point x="450" y="454" type="curve"/>
      <point x="360" y="454" type="line"/>
      <point x="360" y="427" type="line"/>
      <point x="450" y="427" type="line"/>
      <point x="576" y="427"/>
      <point x="694" y="384"/>
      <point x="694" y="272" type="curve" smooth="yes"/>
      <point x="694" y="162"/>
      <point x="603" y="107"/>
      <point x="524" y="107" type="curve" smooth="yes"/>
      <point x="414" y="107"/>
      <point x="292" y="180"/>
      <point x="292" y="293" type="curve" smooth="yes"/>
    </contour>
  </outline>
</glyph>
<glyph name="gamma" format="2">
  <advance width="930"/>
  <unicode hex="03B3"/>
  <outline>
    <contour>
      <point x="80" y="164" type="line" name="hr00"/>
      <point x="80" y="48"/>
      <point x="157" y="-20"/>
      <point x="289" y="-20" type="curve" smooth="yes"/>
      <point x="477" y="-20"/>
      <point x="600" y="97"/>
      <point x="600" y="337" type="curve" smooth="yes"/>
      <point x="600" y="725" type="line"/>
      <point x="920" y="725" type="line"/>
      <point x="920" y="750" type="line"/>
      <point x="300" y="750" type="line"/>
      <point x="300" y="725" type="line"/>
      <point x="472" y="725" type="line"/>
      <point x="472" y="337" type="line" smooth="yes"/>
      <point x="472" y="88"/>
      <point x="404" y="7"/>
      <point x="287" y="7" type="curve" smooth="yes"/>
      <point x="186" y="7"/>
      <point x="108" y="56"/>
      <point x="108" y="164" type="curve"/>
    </contour>
    <contour>
      <point x="794" y="749" type="line"/>
      <point x="702" y="361"/>
      <point x="80" y="501"/>
      <point x="80" y="164" type="curve"/>
      <point x="108" y="164" type="line"/>
      <point x="108" y="481"/>
      <point x="726" y="342"/>
      <point x="823" y="749" type="curve"/>
    </contour>
  </outline>
</glyph>
<glyph name="delta" format="2">
  <advance width="930"/>
  <unicode hex="03B4"/>
  <outline>
    <contour>
      <point x="618" y="723" type="line" smooth="yes"/>
      <point x="761" y="723"/>
      <point x="794" y="690"/>
      <point x="794" y="556" type="curve" smooth="yes"/>
      <point x="794" y="460" type="line"/>
      <point x="820" y="460" type="line"/>
      <point x="820" y="750" type="line"/>
      <point x="160" y="750" type="line"/>
      <point x="160" y="723" type="line"/>
    </contour>
    <contour>
      <point x="756" y="305" type="curve" smooth="yes" name="hr00"/>
      <point x="756.0" y="547.0"/>
      <point x="570.7598516404315" y="692.1739747647443"/>
      <point x="307" y="730" type="curve"/>
      <point x="306" y="723" type="line"/>
      <point x="800" y="723" type="line"/>
      <point x="800" y="750" type="line"/>
      <point x="133" y="750" type="line"/>
      <point x="133" y="723" type="line"/>
      <point x="180" y="723" type="line" smooth="yes"/>
      <point x="406.5454545454545" y="723"/>
      <point x="612.0016051507565" y="598.9787626207599"/>
      <point x="625" y="427" type="curve"/>
      <point x="632" y="428" type="line"/>
      <point x="615.0199078594262" y="496.9191975117409"/>
      <point x="530.6428571428571" y="571.0"/>
      <point x="417" y="571" type="curve" smooth="yes"/>
      <point x="238.85488958990535" y="571.0"/>
      <point x="105.0" y="448.0"/>
      <point x="105" y="286" type="curve" smooth="yes"/>
      <point x="105.0" y="124.0"/>
      <point x="239.9673590504451" y="0.0"/>
      <point x="437" y="0" type="curve" smooth="yes"/>
      <point x="520.3057324840764" y="0.0"/>
      <point x="756" y="52"/>
    </contour>
    <contour>
      <point x="436" y="27" type="curve" smooth="yes"/>
      <point x="315.1632653061224" y="27.0"/>
      <point x="245.0" y="98.0"/>
      <point x="245" y="289" type="curve" smooth="yes"/>
      <point x="245.0" y="487.0"/>
      <point x="308.1428571428571" y="544.0"/>
      <point x="415" y="544" type="curve" smooth="yes"/>
      <point x="485.6586538461538" y="544.0"/>
      <point x="628.0" y="525.0"/>
      <point x="628" y="289" type="curve" smooth="yes"/>
      <point x="628.0" y="108.0"/>
      <point x="564.3422459893048" y="27.0"/>
    </contour>
  </outline>
</glyph>
<glyph name="epsilon" format="2">
  <advance width="930"/>
  <unicode hex="03B5"/>
  <outline>
    <contour>
      <point x="765" y="750" type="line" name="hr00"/>
      <point x="765" y="580" type="line"/>
      <point x="721" y="703"/>
      <point x="617" y="770"/>
      <point x="460" y="770" type="curve" smooth="yes"/>
      <point x="269" y="770"/>
      <point x="110" y="691"/>
      <point x="110" y="563" type="curve" smooth="yes"/>
      <point x="110" y="441"/>
      <point x="230" y="411"/>
      <point x="330" y="400" type="curve"/>
      <point x="230" y="391"/>
      <point x="90" y="330"/>
      <point x="90" y="199" type="curve" smooth="yes"/>
      <point x="90" y="44"/>
      <point x="254" y="-20"/>
      <point x="456" y="-20" type="curve" smooth="yes"/>
      <point x="684" y="-20"/>
      <point x="810" y="96"/>
      <point x="810" y="311" type="curve"/>
      <point x="785" y="311" type="line"/>
      <point x="785" y="105"/>
      <point x="664" y="9"/>
      <point x="456" y="9" type="curve" smooth="yes"/>
      <point x="308" y="9"/>
      <point x="216" y="90"/>
      <point x="216" y="202" type="curve" smooth="yes"/>
      <point x="216" y="324"/>
      <point x="314" y="387"/>
      <point x="440" y="387" type="curve" smooth="yes"/>
      <point x="586" y="387" type="line"/>
      <point x="586" y="414" type="line"/>
      <point x="440" y="414" type="line" smooth="yes"/>
      <point x="320" y="414"/>
      <point x="230" y="467"/>
      <point x="230" y="569" type="curve" smooth="yes"/>
      <point x="230" y="670"/>
      <point x="316" y="743"/>
      <point x="461" y="743" type="curve" smooth="yes"/>
      <point x="666" y="743"/>
      <point x="765" y="629"/>
      <point x="765" y="421" type="curve"/>
      <point x="790" y="421" type="line"/>
      <point x="790" y="750" type="line"/>
    </contour>
  </outline>
</glyph>
<glyph name="theta" format="2">
  <advance width="930"/>
  <unicode hex="03B8"/>
  <outline>
    <contour>
      <point x="197" y="368" type="line"/>
      <point x="756" y="368" type="line"/>
      <point x="756" y="395" type="line"/>
      <point x="197" y="395" type="line"/>
    </contour>
    <component base="omicron"/>
  </outline>
</glyph>
<glyph name="uni03BC" format="2">
  <advance width="930"/>
  <unicode hex="03BC"/>
  <outline>
    <contour>
      <point x="90" y="725" type="line" name="hr00"/>
      <point x="194" y="725" type="line"/>
      <point x="194" y="25" type="line"/>
      <point x="95" y="25" type="line"/>
      <point x="95" y="0" type="line"/>
      <point x="579" y="0" type="line"/>
      <point x="579" y="25" type="line"/>
      <point x="322" y="25" type="line"/>
      <point x="322" y="119" type="line"/>
      <point x="344" y="98"/>
      <point x="402" y="80"/>
      <point x="449" y="80" type="curve" smooth="yes"/>
      <point x="526" y="80"/>
      <point x="599" y="121"/>
      <point x="618" y="244" type="curve"/>
      <point x="618" y="236" type="line" smooth="yes"/>
      <point x="618" y="109"/>
      <point x="660" y="80"/>
      <point x="742" y="80" type="curve" smooth="yes"/>
      <point x="825" y="80"/>
      <point x="845" y="112"/>
      <point x="845" y="219" type="curve" smooth="yes"/>
      <point x="845" y="295" type="line"/>
      <point x="820" y="295" type="line"/>
      <point x="820" y="221" type="line" smooth="yes"/>
      <point x="820" y="145"/>
      <point x="812" y="118"/>
      <point x="780" y="118" type="curve" smooth="yes"/>
      <point x="750" y="118"/>
      <point x="736" y="149"/>
      <point x="736" y="219" type="curve" smooth="yes"/>
      <point x="736" y="750" type="line"/>
      <point x="90" y="750" type="line"/>
    </contour>
    <contour>
      <point x="608" y="419" type="line" smooth="yes"/>
      <point x="608" y="205"/>
      <point x="566" y="113"/>
      <point x="455" y="113" type="curve" smooth="yes"/>
      <point x="407" y="113"/>
      <point x="317" y="127"/>
      <point x="317" y="291" type="curve" smooth="yes"/>
      <point x="317" y="725" type="line"/>
      <point x="608" y="725" type="line"/>
    </contour>
  </outline>
</glyph>
<glyph name="rho" format="2">
  <advance width="930"/>
  <unicode hex="03C1"/>
  <outline>
    <contour>
      <point x="194" y="25" type="line" name="hr00"/>
      <point x="95" y="25" type="line"/>
      <point x="95" y="0" type="line"/>
      <point x="579" y="0" type="line"/>
      <point x="579" y="25" type="line"/>
      <point x="322" y="25" type="line"/>
      <point x="322" y="173" type="line"/>
      <point x="332" y="143"/>
      <point x="376" y="79"/>
      <point x="498" y="79" type="curve" smooth="yes"/>
      <point x="710" y="79"/>
      <point x="815" y="202"/>
      <point x="815" y="424" type="curve" smooth="yes"/>
      <point x="815" y="646"/>
      <point x="710" y="770"/>
      <point x="498" y="770" type="curve" smooth="yes"/>
      <point x="409" y="770"/>
      <point x="194" y="728"/>
      <point x="194" y="445" type="curve" smooth="yes"/>
    </contour>
    <contour>
      <point x="499" y="743" type="curve" smooth="yes"/>
      <point x="636" y="743"/>
      <point x="675" y="672"/>
      <point x="675" y="421" type="curve" smooth="yes"/>
      <point x="675" y="163"/>
      <point x="643" y="106"/>
      <point x="500" y="106" type="curve" smooth="yes"/>
      <point x="401" y="106"/>
      <point x="322" y="145"/>
      <point x="322" y="293" type="curve" smooth="yes"/>
      <point x="322" y="508" type="line" smooth="yes"/>
      <point x="322" y="642"/>
      <point x="354" y="743"/>
    </contour>
  </outline>
</glyph>
<glyph name="upsilon" format="2">
  <advance width="930"/>
  <unicode hex="03C5"/>
  <outline>
    <contour>
      <point x="472" y="-20" type="curve" smooth="yes" name="hr00"/>
      <point x="667" y="-20"/>
      <point x="744" y="112"/>
      <point x="744" y="283" type="curve" smooth="yes"/>
      <point x="744" y="725" type="line"/>
      <point x="848" y="725" type="line"/>
      <point x="848" y="750" type="line"/>
      <point x="83" y="750" type="line"/>
      <point x="83" y="725" type="line"/>
      <point x="187" y="725" type="line"/>
      <point x="187" y="283" type="line" smooth="yes"/>
      <point x="187" y="112"/>
      <point x="277" y="-20"/>
    </contour>
    <contour>
      <point x="315" y="725" type="line"/>
      <point x="616" y="725" type="line"/>
      <point x="616" y="324" type="line" smooth="yes"/>
      <point x="616" y="155"/>
      <point x="615" y="5"/>
      <point x="472" y="5" type="curve" smooth="yes"/>
      <point x="316" y="5"/>
      <point x="315" y="155"/>
      <point x="315" y="324" type="curve" smooth="yes"/>
    </contour>
  </outline>
</glyph>
<glyph name="omega" format="2">
  <advance width="930"/>
  <unicode hex="03C9"/>
  <outline>
    <contour>
      <point x="297" y="725" type="line"/>
      <point x="410" y="725" type="line"/>
      <point x="410" y="750" type="line"/>
      <point x="75" y="750" type="line"/>
      <point x="75" y="725" type="line"/>
      <point x="169" y="725" type="line"/>
      <point x="169" y="263" type="line" smooth="yes"/>
      <point x="169" y="92"/>
      <point x="219" y="-20"/>
      <point x="384" y="-20" type="curve" smooth="yes"/>
      <point x="470" y="-20"/>
      <point x="510" y="45"/>
      <point x="519" y="112" type="curve"/>
      <point x="528" y="44"/>
      <point x="574" y="-20"/>
      <point x="645" y="-20" type="curve" smooth="yes"/>
      <point x="740" y="-20"/>
      <point x="786" y="54"/>
      <point x="786" y="195" type="curve" smooth="yes"/>
      <point x="786" y="490" type="line"/>
      <point x="758" y="480" type="line"/>
      <point x="758" y="194" type="line" smooth="yes"/>
      <point x="758" y="75"/>
      <point x="724" y="5"/>
      <point x="645" y="5" type="curve" smooth="yes"/>
      <point x="569" y="5"/>
      <point x="532" y="105"/>
      <point x="532" y="174" type="curve" smooth="yes"/>
      <point x="532" y="480" type="line"/>
      <point x="503" y="480" type="line"/>
      <point x="503" y="174" type="line" smooth="yes"/>
      <point x="503" y="105"/>
      <point x="479" y="5"/>
      <point x="394" y="5" type="curve" smooth="yes"/>
      <point x="318" y="5"/>
      <point x="297" y="105"/>
      <point x="297" y="194" type="curve" smooth="yes"/>
    </contour>
    <contour>
      <point x="473" y="601" type="curve" smooth="yes"/>
      <point x="473" y="691"/>
      <point x="528" y="742"/>
      <point x="616" y="742" type="curve" smooth="yes"/>
      <point x="700" y="742"/>
      <point x="755" y="668"/>
      <point x="756" y="494" type="curve"/>
      <point x="723" y="473"/>
      <point x="686" y="463"/>
      <point x="648" y="463" type="curve" smooth="yes"/>
      <point x="518" y="463"/>
      <point x="473" y="513"/>
    </contour>
    <contour>
      <point x="785" y="481" type="line"/>
      <point x="849" y="529"/>
      <point x="891" y="617"/>
      <point x="891" y="750" type="curve"/>
      <point x="862" y="750" type="line"/>
      <point x="865" y="638"/>
      <point x="833" y="561"/>
      <point x="785" y="516" type="curve"/>
      <point x="779" y="691"/>
      <point x="710" y="770"/>
      <point x="615" y="770" type="curve" smooth="yes"/>
      <point x="512" y="770"/>
      <point x="445" y="701"/>
      <point x="445" y="601" type="curve" smooth="yes"/>
      <point x="445" y="501"/>
      <point x="505" y="435"/>
      <point x="636" y="435" type="curve" smooth="yes"/>
      <point x="679" y="435"/>
      <point x="720" y="444"/>
      <point x="756" y="463" type="curve"/>
    </contour>
  </outline>
</glyph>
<glyph name="uni0489" format="2">
  <advance width="930"/>
  <unicode hex="0489"/>
  <outline>
    <contour>
      <point x="722" y="119" type="curve" smooth="yes" name="hr01"/>
      <point x="722" y="164"/>
      <point x="713" y="199"/>
      <point x="695" y="224" type="curve"/>
      <point x="709" y="224" type="line" smooth="yes"/>
      <point x="798" y="224"/>
      <point x="844" y="272"/>
      <point x="844" y="363" type="curve" smooth="yes"/>
      <point x="844" y="462"/>
      <point x="799" y="516"/>
      <point x="709" y="516" type="curve" smooth="yes"/>
      <point x="699" y="516" type="line"/>
      <point x="714" y="538"/>
      <point x="722" y="568"/>
      <point x="722" y="606" type="curve" smooth="yes"/>
      <point x="722" y="705"/>
      <point x="677" y="759"/>
      <point x="588" y="759" type="curve" smooth="yes"/>
      <point x="525" y="759"/>
      <point x="485" y="733"/>
      <point x="466" y="684" type="curve"/>
      <point x="447" y="733"/>
      <point x="406" y="759"/>
      <point x="344" y="759" type="curve" smooth="yes"/>
      <point x="254" y="759"/>
      <point x="209" y="705"/>
      <point x="209" y="606" type="curve" smooth="yes"/>
      <point x="209" y="568"/>
      <point x="217" y="538"/>
      <point x="232" y="516" type="curve"/>
      <point x="221" y="516" type="line" smooth="yes"/>
      <point x="132" y="516"/>
      <point x="87" y="462"/>
      <point x="87" y="363" type="curve" smooth="yes"/>
      <point x="87" y="272"/>
      <point x="133" y="224"/>
      <point x="221" y="224" type="curve" smooth="yes"/>
      <point x="226" y="224"/>
      <point x="231" y="224"/>
      <point x="236" y="225" type="curve"/>
      <point x="218" y="199"/>
      <point x="209" y="164"/>
      <point x="209" y="119" type="curve" smooth="yes"/>
      <point x="209" y="28"/>
      <point x="255" y="-20"/>
      <point x="344" y="-20" type="curve" smooth="yes"/>
      <point x="405" y="-20"/>
      <point x="446" y="3"/>
      <point x="466" y="48" type="curve"/>
      <point x="485" y="3"/>
      <point x="526" y="-20"/>
      <point x="588" y="-20" type="curve" smooth="yes"/>
      <point x="676" y="-20"/>
      <point x="722" y="28"/>
    </contour>
    <contour>
      <point x="478" y="605" type="curve" smooth="yes" name="hr02"/>
      <point x="478" y="692"/>
      <point x="515" y="734"/>
      <point x="588" y="734" type="curve" smooth="yes"/>
      <point x="660" y="734"/>
      <point x="697" y="692"/>
      <point x="697" y="605" type="curve" smooth="yes"/>
      <point x="697" y="555"/>
      <point x="679" y="521"/>
      <point x="648" y="505" type="curve" smooth="yes"/>
      <point x="645" y="504"/>
      <point x="642" y="502"/>
      <point x="640" y="501" type="curve" smooth="yes"/>
      <point x="625" y="495"/>
      <point x="608" y="492"/>
      <point x="588" y="492" type="curve" smooth="yes"/>
      <point x="518" y="492"/>
      <point x="478" y="529"/>
    </contour>
    <contour>
      <point x="234" y="605" type="curve" smooth="yes"/>
      <point x="234" y="692"/>
      <point x="271" y="734"/>
      <point x="344" y="734" type="curve" smooth="yes"/>
      <point x="416" y="734"/>
      <point x="453" y="692"/>
      <point x="453" y="605" type="curve" smooth="yes"/>
      <point x="453" y="555"/>
      <point x="435" y="521"/>
      <point x="404" y="505" type="curve" smooth="yes"/>
      <point x="401" y="504"/>
      <point x="398" y="502"/>
      <point x="396" y="501" type="curve" smooth="yes"/>
      <point x="381" y="495"/>
      <point x="364" y="492"/>
      <point x="344" y="492" type="curve" smooth="yes"/>
      <point x="274" y="492"/>
      <point x="234" y="529"/>
    </contour>
    <contour>
      <point x="610" y="611" type="curve" smooth="yes"/>
      <point x="610" y="631"/>
      <point x="602" y="642"/>
      <point x="587" y="642" type="curve" smooth="yes"/>
      <point x="572" y="642"/>
      <point x="565" y="631"/>
      <point x="565" y="611" type="curve" smooth="yes"/>
      <point x="565" y="594"/>
      <point x="573" y="584"/>
      <point x="587" y="584" type="curve" smooth="yes"/>
      <point x="602" y="584"/>
      <point x="610" y="594"/>
    </contour>
    <contour>
      <point x="366" y="611" type="curve" smooth="yes"/>
      <point x="366" y="631"/>
      <point x="358" y="642"/>
      <point x="343" y="642" type="curve" smooth="yes"/>
      <point x="328" y="642"/>
      <point x="321" y="631"/>
      <point x="321" y="611" type="curve" smooth="yes"/>
      <point x="321" y="594"/>
      <point x="329" y="584"/>
      <point x="343" y="584" type="curve" smooth="yes"/>
      <point x="358" y="584"/>
      <point x="366" y="594"/>
    </contour>
    <contour>
      <point x="455" y="516" type="line" name="hr03"/>
      <point x="459" y="522"/>
      <point x="462" y="528"/>
      <point x="466" y="535" type="curve"/>
      <point x="469" y="528"/>
      <point x="472" y="522"/>
      <point x="476" y="516" type="curve"/>
    </contour>
    <contour>
      <point x="600" y="362" type="curve" smooth="yes"/>
      <point x="600" y="420"/>
      <point x="617" y="458"/>
      <point x="649" y="477" type="curve"/>
      <point x="654" y="479"/>
      <point x="659" y="481"/>
      <point x="664" y="484" type="curve"/>
      <point x="677" y="489"/>
      <point x="692" y="491"/>
      <point x="709" y="491" type="curve" smooth="yes"/>
      <point x="782" y="491"/>
      <point x="819" y="449"/>
      <point x="819" y="362" type="curve" smooth="yes"/>
      <point x="819" y="286"/>
      <point x="779" y="249"/>
      <point x="709" y="249" type="curve" smooth="yes"/>
      <point x="640" y="249"/>
      <point x="600" y="286"/>
    </contour>
    <contour>
      <point x="356" y="362" type="curve" smooth="yes"/>
      <point x="356" y="420"/>
      <point x="373" y="458"/>
      <point x="405" y="477" type="curve"/>
      <point x="410" y="479"/>
      <point x="415" y="481"/>
      <point x="420" y="484" type="curve"/>
      <point x="433" y="489"/>
      <point x="448" y="491"/>
      <point x="465" y="491" type="curve" smooth="yes"/>
      <point x="483" y="491"/>
      <point x="499" y="488"/>
      <point x="513" y="483" type="curve" smooth="yes"/>
      <point x="517" y="481"/>
      <point x="520" y="479"/>
      <point x="524" y="478" type="curve"/>
      <point x="558" y="459"/>
      <point x="575" y="421"/>
      <point x="575" y="362" type="curve" smooth="yes"/>
      <point x="575" y="286"/>
      <point x="535" y="249"/>
      <point x="465" y="249" type="curve" smooth="yes"/>
      <point x="396" y="249"/>
      <point x="356" y="286"/>
    </contour>
    <contour>
      <point x="112" y="362" type="curve" smooth="yes"/>
      <point x="112" y="449"/>
      <point x="149" y="491"/>
      <point x="221" y="491" type="curve" smooth="yes"/>
      <point x="239" y="491"/>
      <point x="255" y="488"/>
      <point x="269" y="483" type="curve" smooth="yes"/>
      <point x="273" y="481"/>
      <point x="276" y="479"/>
      <point x="280" y="478" type="curve"/>
      <point x="314" y="459"/>
      <point x="331" y="421"/>
      <point x="331" y="362" type="curve" smooth="yes"/>
      <point x="331" y="286"/>
      <point x="291" y="249"/>
      <point x="221" y="249" type="curve" smooth="yes"/>
      <point x="152" y="249"/>
      <point x="112" y="286"/>
    </contour>
    <contour>
      <point x="329" y="467" type="curve" name="hr04"/>
      <point x="358" y="467" type="line"/>
      <point x="352" y="459"/>
      <point x="347" y="451"/>
      <point x="343" y="441" type="curve"/>
      <point x="340" y="451"/>
      <point x="335" y="460"/>
    </contour>
    <contour>
      <point x="573" y="467" type="curve"/>
      <point x="602" y="467" type="line"/>
      <point x="596" y="459"/>
      <point x="591" y="451"/>
      <point x="587" y="441" type="curve"/>
      <point x="584" y="451"/>
      <point x="579" y="460"/>
    </contour>
    <contour>
      <point x="732" y="368" type="curve" smooth="yes"/>
      <point x="732" y="388"/>
      <point x="725" y="399"/>
      <point x="710" y="399" type="curve" smooth="yes"/>
      <point x="695" y="399"/>
      <point x="687" y="388"/>
      <point x="687" y="368" type="curve" smooth="yes"/>
      <point x="687" y="351"/>
      <point x="695" y="341"/>
      <point x="710" y="341" type="curve" smooth="yes"/>
      <point x="724" y="341"/>
      <point x="732" y="351"/>
    </contour>
    <contour>
      <point x="244" y="368" type="curve" smooth="yes"/>
      <point x="244" y="388"/>
      <point x="237" y="399"/>
      <point x="222" y="399" type="curve" smooth="yes"/>
      <point x="207" y="399"/>
      <point x="199" y="388"/>
      <point x="199" y="368" type="curve" smooth="yes"/>
      <point x="199" y="351"/>
      <point x="207" y="341"/>
      <point x="222" y="341" type="curve" smooth="yes"/>
      <point x="236" y="341"/>
      <point x="244" y="351"/>
    </contour>
    <contour>
      <point x="488" y="368" type="curve" smooth="yes"/>
      <point x="488" y="388"/>
      <point x="481" y="399"/>
      <point x="466" y="399" type="curve" smooth="yes"/>
      <point x="451" y="399"/>
      <point x="443" y="388"/>
      <point x="443" y="368" type="curve" smooth="yes"/>
      <point x="443" y="351"/>
      <point x="451" y="341"/>
      <point x="466" y="341" type="curve" smooth="yes"/>
      <point x="480" y="341"/>
      <point x="488" y="351"/>
    </contour>
    <contour>
      <point x="332" y="272" type="line"/>
      <point x="336" y="278"/>
      <point x="340" y="285"/>
      <point x="343" y="292" type="curve"/>
      <point x="347" y="285"/>
      <point x="350" y="278"/>
      <point x="355" y="272" type="curve"/>
    </contour>
    <contour>
      <point x="576" y="272" type="line"/>
      <point x="580" y="278"/>
      <point x="584" y="285"/>
      <point x="587" y="292" type="curve"/>
      <point x="591" y="285"/>
      <point x="594" y="278"/>
      <point x="599" y="272" type="curve"/>
    </contour>
    <contour>
      <point x="588" y="5" type="curve" smooth="yes" name="hr05"/>
      <point x="518" y="5"/>
      <point x="478" y="42"/>
      <point x="478" y="118" type="curve" smooth="yes"/>
      <point x="478" y="205"/>
      <point x="515" y="247"/>
      <point x="588" y="247" type="curve" smooth="yes"/>
      <point x="660" y="247"/>
      <point x="697" y="205"/>
      <point x="697" y="118" type="curve" smooth="yes"/>
      <point x="697" y="42"/>
      <point x="657" y="5"/>
    </contour>
    <contour>
      <point x="344" y="5" type="curve" smooth="yes"/>
      <point x="274" y="5"/>
      <point x="234" y="42"/>
      <point x="234" y="118" type="curve" smooth="yes"/>
      <point x="234" y="205"/>
      <point x="271" y="247"/>
      <point x="344" y="247" type="curve" smooth="yes"/>
      <point x="416" y="247"/>
      <point x="453" y="205"/>
      <point x="453" y="118" type="curve" smooth="yes"/>
      <point x="453" y="42"/>
      <point x="413" y="5"/>
    </contour>
    <contour>
      <point x="465" y="224" type="line" smooth="yes" name="hr06"/>
      <point x="470" y="224"/>
      <point x="475" y="224"/>
      <point x="480" y="225" type="curve"/>
      <point x="474" y="216"/>
      <point x="470" y="207"/>
      <point x="466" y="197" type="curve"/>
      <point x="462" y="207"/>
      <point x="457" y="216"/>
      <point x="451" y="224" type="curve"/>
    </contour>
    <contour>
      <point x="610" y="124" type="curve" smooth="yes"/>
      <point x="610" y="144"/>
      <point x="602" y="155"/>
      <point x="587" y="155" type="curve" smooth="yes"/>
      <point x="572" y="155"/>
      <point x="565" y="144"/>
      <point x="565" y="124" type="curve" smooth="yes"/>
      <point x="565" y="107"/>
      <point x="573" y="97"/>
      <point x="587" y="97" type="curve" smooth="yes"/>
      <point x="602" y="97"/>
      <point x="610" y="107"/>
    </contour>
    <contour>
      <point x="366" y="124" type="curve" smooth="yes"/>
      <point x="366" y="144"/>
      <point x="358" y="155"/>
      <point x="343" y="155" type="curve" smooth="yes"/>
      <point x="328" y="155"/>
      <point x="321" y="144"/>
      <point x="321" y="124" type="curve" smooth="yes"/>
      <point x="321" y="107"/>
      <point x="329" y="97"/>
      <point x="343" y="97" type="curve" smooth="yes"/>
      <point x="358" y="97"/>
      <point x="366" y="107"/>
    </contour>
  </outline>
</glyph>
<glyph name="quoteleft" format="2">
  <advance width="465"/>
  <unicode hex="2018"/>
  <outline>
    <contour>
      <point x="399" y="480" type="line" name="hr00"/>
      <point x="399" y="507" type="line"/>
      <point x="321" y="507" type="line"/>
      <point x="400" y="793" type="line"/>
      <point x="374" y="800" type="line"/>
      <point x="292" y="507" type="line"/>
      <point x="292" y="480" type="line"/>
    </contour>
  </outline>
</glyph>
<glyph name="quotedblleft" format="2">
  <advance width="465"/>
  <unicode hex="201C"/>
  <outline>
    <contour>
      <point x="399" y="480" type="line" name="hr00"/>
      <point x="399" y="507" type="line"/>
      <point x="321" y="507" type="line"/>
      <point x="400" y="793" type="line"/>
      <point x="374" y="800" type="line"/>
      <point x="292" y="507" type="line"/>
      <point x="292" y="480" type="line"/>
    </contour>
    <contour>
      <point x="237" y="480" type="line"/>
      <point x="237" y="507" type="line"/>
      <point x="159" y="507" type="line"/>
      <point x="238" y="793" type="line"/>
      <point x="212" y="800" type="line"/>
      <point x="130" y="507" type="line"/>
      <point x="130" y="480" type="line"/>
    </contour>
  </outline>
</glyph>
<glyph name="ellipsis" format="2">
  <advance width="930"/>
  <unicode hex="2026"/>
  <outline>
    <contour>
      <point x="803" y="98" type="curve" smooth="yes" name="hr00"/>
      <point x="803" y="183"/>
      <point x="761" y="230"/>
      <point x="677" y="230" type="curve" smooth="yes"/>
      <point x="621" y="230"/>
      <point x="585" y="209"/>
      <point x="566" y="169" type="curve"/>
      <point x="548" y="209"/>
      <point x="510" y="230"/>
      <point x="454" y="230" type="curve" smooth="yes"/>
      <point x="398" y="230"/>
      <point x="362" y="209"/>
      <point x="343" y="169" type="curve"/>
      <point x="325" y="209"/>
      <point x="287" y="230"/>
      <point x="231" y="230" type="curve" smooth="yes"/>
      <point x="148" y="230"/>
      <point x="107" y="183"/>
      <point x="107" y="98" type="curve" smooth="yes"/>
      <point x="107" y="21"/>
      <point x="150" y="-20"/>
      <point x="231" y="-20" type="curve" smooth="yes"/>
      <point x="286" y="-20"/>
      <point x="325" y="-1"/>
      <point x="343" y="35" type="curve"/>
      <point x="362" y="-1"/>
      <point x="399" y="-20"/>
      <point x="454" y="-20" type="curve" smooth="yes"/>
      <point x="509" y="-20"/>
      <point x="548" y="-1"/>
      <point x="566" y="35" type="curve"/>
      <point x="585" y="-1"/>
      <point x="622" y="-20"/>
      <point x="677" y="-20" type="curve" smooth="yes"/>
      <point x="759" y="-20"/>
      <point x="803" y="21"/>
    </contour>
    <contour>
      <point x="231" y="203" type="curve" smooth="yes"/>
      <point x="300" y="203"/>
      <point x="330" y="171"/>
      <point x="330" y="97" type="curve" smooth="yes"/>
      <point x="330" y="35"/>
      <point x="298" y="7"/>
      <point x="231" y="7" type="curve" smooth="yes"/>
      <point x="165" y="7"/>
      <point x="134" y="35"/>
      <point x="134" y="97" type="curve" smooth="yes"/>
      <point x="134" y="171"/>
      <point x="163" y="203"/>
    </contour>
    <contour>
      <point x="454" y="203" type="curve" smooth="yes"/>
      <point x="523" y="203"/>
      <point x="553" y="171"/>
      <point x="553" y="97" type="curve" smooth="yes"/>
      <point x="553" y="35"/>
      <point x="521" y="7"/>
      <point x="454" y="7" type="curve" smooth="yes"/>
      <point x="388" y="7"/>
      <point x="357" y="35"/>
      <point x="357" y="97" type="curve" smooth="yes"/>
      <point x="357" y="171"/>
      <point x="386" y="203"/>
    </contour>
    <contour>
      <point x="677" y="203" type="curve" smooth="yes"/>
      <point x="746" y="203"/>
      <point x="776" y="171"/>
      <point x="776" y="97" type="curve" smooth="yes"/>
      <point x="776" y="35"/>
      <point x="744" y="7"/>
      <point x="677" y="7" type="curve" smooth="yes"/>
      <point x="611" y="7"/>
      <point x="580" y="35"/>
      <point x="580" y="97" type="curve" smooth="yes"/>
      <point x="580" y="171"/>
      <point x="609" y="203"/>
    </contour>
  </outline>
</glyph>
<glyph name="guilsinglleft" format="2">
  <advance width="465"/>
  <unicode hex="2039"/>
  <outline>
    <contour>
      <point x="277" y="162" type="curve" name="hr00"/>
      <point x="292" y="162" type="line"/>
      <point x="272" y="269"/>
      <point x="254" y="318"/>
      <point x="193" y="397" type="curve"/>
      <point x="254" y="476"/>
      <point x="272" y="525"/>
      <point x="292" y="632" type="curve"/>
      <point x="277" y="632" type="line"/>
      <point x="250" y="525"/>
      <point x="214" y="480"/>
      <point x="135" y="397" type="curve"/>
      <point x="214" y="314"/>
      <point x="250" y="269"/>
    </contour>
  </outline>
</glyph>
<glyph name="guilsinglright" format="2">
  <advance width="465"/>
  <unicode hex="203A"/>
  <outline>
    <contour>
      <point x="173" y="162" type="curve" name="hr00"/>
      <point x="188" y="162" type="line"/>
      <point x="215" y="269"/>
      <point x="251" y="314"/>
      <point x="330" y="397" type="curve"/>
      <point x="251" y="480"/>
      <point x="215" y="525"/>
      <point x="188" y="632" type="curve"/>
      <point x="173" y="632" type="line"/>
      <point x="193" y="525"/>
      <point x="211" y="476"/>
      <point x="272" y="397" type="curve"/>
      <point x="211" y="318"/>
      <point x="193" y="269"/>
    </contour>
  </outline>
</glyph>
<glyph name="Omega" format="2">
  <advance width="930"/>
  <unicode hex="2126"/>
  <outline>
    <contour>
      <point x="504" y="107" type="line"/>
      <point x="750" y="107" type="line" smooth="yes"/>
      <point x="794" y="107"/>
      <point x="814" y="128"/>
      <point x="814" y="183" type="curve" smooth="yes"/>
      <point x="814" y="308" type="line"/>
      <point x="839" y="308" type="line"/>
      <point x="839" y="0" type="line"/>
      <point x="491" y="0" type="line"/>
      <point x="491" y="193" type="line"/>
      <point x="593.8122606700156" y="201.1362220674113"/>
      <point x="660.0" y="289.0"/>
      <point x="660" y="467" type="curve" smooth="yes"/>
      <point x="660.0" y="677.0"/>
      <point x="582.671875" y="745.0"/>
      <point x="464" y="745" type="curve" smooth="yes"/>
      <point x="345.61417322834643" y="745.0"/>
      <point x="270.0" y="677.0"/>
      <point x="270" y="467" type="curve" smooth="yes"/>
      <point x="270.0" y="308.0"/>
      <point x="334.6111134421865" y="201.12341251525677"/>
      <point x="438" y="193" type="curve"/>
      <point x="438" y="0" type="line"/>
      <point x="90" y="0" type="line"/>
      <point x="90" y="308" type="line"/>
      <point x="115" y="308" type="line"/>
      <point x="115" y="183" type="line" smooth="yes"/>
      <point x="115" y="128"/>
      <point x="135" y="107"/>
      <point x="179" y="107" type="curve" smooth="yes"/>
      <point x="425" y="107" type="line"/>
      <point x="410" y="27" type="line"/>
      <point x="410" y="171" type="line"/>
      <point x="252.59757849904386" y="180.06506092413883"/>
      <point x="130.0" y="290.0"/>
      <point x="130" y="468" type="curve" smooth="yes"/>
      <point x="130.0" y="664.0"/>
      <point x="270.7208121827411" y="770.0"/>
      <point x="464" y="770" type="curve" smooth="yes"/>
      <point x="659.1515151515151" y="770.0"/>
      <point x="800.0" y="664.0"/>
      <point x="800" y="468" type="curve" smooth="yes"/>
      <point x="800.0" y="291.0"/>
      <point x="675.6774212492902" y="180.07079807232734"/>
      <point x="519" y="171" type="curve"/>
      <point x="519" y="27" type="line"/>
    </contour>
  </outline>
</glyph>
<glyph name="Delta" format="2">
  <advance width="930"/>
  <unicode hex="2206"/>
  <outline>
    <contour>
      <point x="870" y="0" type="line" name="hr00"/>
      <point x="870" y="25" type="line"/>
      <point x="796" y="25" type="line"/>
      <point x="532" y="750" type="line"/>
      <point x="210" y="750" type="line"/>
      <point x="210" y="725" type="line"/>
      <point x="383" y="725" type="line"/>
      <point x="130" y="25" type="line"/>
      <point x="60" y="25" type="line"/>
      <point x="60" y="0" type="line"/>
    </contour>
    <contour>
      <point x="414" y="725" type="line"/>
      <point x="669" y="25" type="line"/>
      <point x="161" y="25" type="line"/>
    </contour>
  </outline>
</glyph>
<glyph name="triangleupblack" format="2">
  <advance width="930"/>
  <unicode hex="25B2"/>
  <outline>
    <contour>
      <point x="45" y="0" type="line"/>
      <point x="885" y="0" type="line"/>
      <point x="465" y="800" type="line"/>
    </contour>
  </outline>
</glyph>
<glyph name="circlewhite" format="2">
  <advance width="930"/>
  <unicode hex="25CB"/>
  <outline>
    <contour>
      <point x="464" y="770" type="curve" smooth="yes" name="hr00"/>
      <point x="216" y="770"/>
      <point x="90" y="627"/>
      <point x="90" y="368" type="curve" smooth="yes"/>
      <point x="90" y="117"/>
      <point x="219" y="-20"/>
      <point x="464" y="-20" type="curve" smooth="yes"/>
      <point x="710" y="-20"/>
      <point x="839" y="117"/>
      <point x="839" y="368" type="curve" smooth="yes"/>
      <point x="839" y="627"/>
      <point x="713" y="770"/>
    </contour>
    <contour>
      <point x="464" y="9" type="curve" smooth="yes"/>
      <point x="242" y="9"/>
      <point x="119" y="124"/>
      <point x="119" y="367" type="curve" smooth="yes"/>
      <point x="119" y="620"/>
      <point x="235" y="741"/>
      <point x="464" y="741" type="curve" smooth="yes"/>
      <point x="694" y="741"/>
      <point x="810" y="620"/>
      <point x="810" y="367" type="curve" smooth="yes"/>
      <point x="810" y="124"/>
      <point x="688" y="9"/>
    </contour>
  </outline>
</glyph>
<glyph name="circlehalfleftblack" format="2">
  <advance width="930"/>
  <unicode hex="25D0"/>
  <anchor x="464.0" y="750.0" name="top"/>
  <outline>
    <contour>
      <point x="464" y="770" type="curve" smooth="yes"/>
      <point x="216" y="770"/>
      <point x="90" y="627"/>
      <point x="90" y="368" type="curve" smooth="yes"/>
      <point x="90" y="117"/>
      <point x="219" y="-20"/>
      <point x="464" y="-20" type="curve" smooth="yes"/>
      <point x="710" y="-20"/>
      <point x="839.0" y="117.0"/>
      <point x="839" y="368" type="curve" smooth="yes"/>
      <point x="839.0" y="627.0"/>
      <point x="713" y="770"/>
    </contour>
    <contour>
      <point x="464" y="9" type="curve"/>
      <point x="464" y="741" type="line"/>
      <point x="694.0" y="741.0"/>
      <point x="810.0" y="619.6489361702128"/>
      <point x="810" y="367" type="curve" smooth="yes"/>
      <point x="810.0" y="124.35555555555555"/>
      <point x="688.0" y="9.0"/>
    </contour>
  </outline>
</glyph>
<glyph name="starwhite" format="2">
  <advance width="930"/>
  <unicode hex="2606"/>
  <outline>
    <contour>
      <point x="465" y="238" type="line"/>
      <point x="244" y="81" type="line"/>
      <point x="330" y="337" type="line"/>
      <point x="108" y="501" type="line"/>
      <point x="381" y="495" type="line"/>
      <point x="465" y="760" type="line"/>
      <point x="549" y="495" type="line"/>
      <point x="822" y="501" type="line"/>
      <point x="600" y="337" type="line"/>
      <point x="686" y="81" type="line"/>
    </contour>
    <contour>
      <point x="566" y="348" type="line"/>
      <point x="732" y="470" type="line"/>
      <point x="528" y="466" type="line"/>
      <point x="465" y="663" type="line"/>
      <point x="402" y="466" type="line"/>
      <point x="198" y="470" type="line"/>
      <point x="364" y="348" type="line"/>
      <point x="299" y="156" type="line"/>
      <point x="465" y="274" type="line"/>
      <point x="631" y="156" type="line"/>
    </contour>
  </outline>
</glyph>
<glyph name="uniA672" format="2">
  <advance width="930"/>
  <unicode hex="A672"/>
  <outline>
    <contour>
      <point x="464" y="770" type="curve" smooth="yes" name="hr00"/>
      <point x="216" y="770"/>
      <point x="90" y="627"/>
      <point x="90" y="368" type="curve" smooth="yes"/>
      <point x="90" y="117"/>
      <point x="219" y="-20"/>
      <point x="464" y="-20" type="curve" smooth="yes"/>
      <point x="710" y="-20"/>
      <point x="839" y="117"/>
      <point x="839" y="368" type="curve" smooth="yes"/>
      <point x="839" y="627"/>
      <point x="713" y="770"/>
    </contour>
    <contour>
      <point x="119" y="380" type="line"/>
      <point x="123" y="619"/>
      <point x="235" y="736"/>
      <point x="451" y="741" type="curve"/>
      <point x="451" y="380" type="line"/>
    </contour>
    <contour>
      <point x="477" y="380" type="line"/>
      <point x="477" y="741" type="line"/>
      <point x="694" y="736"/>
      <point x="806" y="620"/>
      <point x="810" y="380" type="curve"/>
    </contour>
    <contour>
      <point x="119" y="355" type="curve"/>
      <point x="451" y="355" type="line"/>
      <point x="451" y="9" type="line"/>
      <point x="241" y="14"/>
      <point x="123" y="125"/>
    </contour>
    <contour>
      <point x="477" y="355" type="line"/>
      <point x="810" y="355" type="line"/>
      <point x="806" y="125"/>
      <point x="689" y="13"/>
      <point x="477" y="9" type="curve"/>
    </contour>
  </outline>
</glyph>
<glyph name="A.2" format="2">
  <advance width="930"/>
  <unicode hex="E000"/>
  <outline>
    <contour>
      <point x="157" y="0" type="line" name="hr01"/>
      <point x="461" y="708" type="line" smooth="yes"/>
      <point x="465" y="718"/>
      <point x="471" y="721"/>
      <point x="477" y="718" type="curve" smooth="yes"/>
      <point x="483" y="715"/>
      <point x="482" y="708"/>
      <point x="479" y="699" type="curve" smooth="yes"/>
      <point x="297" y="52" type="line" smooth="yes"/>
      <point x="289" y="23"/>
      <point x="305" y="5"/>
      <point x="326" y="0" type="curve" smooth="yes"/>
      <point x="345" y="-4"/>
      <point x="369" y="4"/>
      <point x="380" y="31" type="curve" smooth="yes"/>
      <point x="577" y="501" type="line" smooth="yes"/>
      <point x="580" y="509"/>
      <point x="585" y="514"/>
      <point x="591" y="510" type="curve" smooth="yes"/>
      <point x="597" y="506"/>
      <point x="597" y="497"/>
      <point x="595" y="485" type="curve" smooth="yes"/>
      <point x="510" y="49" type="line" smooth="yes"/>
      <point x="504" y="18"/>
      <point x="521" y="4"/>
      <point x="538" y="1" type="curve" smooth="yes"/>
      <point x="554" y="-2"/>
      <point x="575" y="6"/>
      <point x="585" y="28" type="curve" smooth="yes"/>
      <point x="677" y="230" type="line" smooth="yes"/>
      <point x="679" y="235"/>
      <point x="683" y="238"/>
      <point x="688" y="235" type="curve" smooth="yes"/>
      <point x="694" y="231"/>
      <point x="691" y="222"/>
      <point x="689" y="212" type="curve" smooth="yes"/>
      <point x="651" y="45" type="line" smooth="yes" name="hr02"/>
      <point x="645" y="20"/>
      <point x="655" y="5"/>
      <point x="674" y="0" type="curve" smooth="yes"/>
      <point x="688" y="-4"/>
      <point x="706" y="0"/>
      <point x="721" y="25" type="curve" smooth="yes"/>
      <point x="765" y="96" type="line"/>
      <point x="741" y="111" type="line"/>
      <point x="694" y="35" type="line" smooth="yes"/>
      <point x="690" y="28"/>
      <point x="687" y="26"/>
      <point x="682" y="27" type="curve" smooth="yes"/>
      <point x="678" y="28"/>
      <point x="678" y="32"/>
      <point x="679" y="38" type="curve" smooth="yes"/>
      <point x="717" y="206" type="line" smooth="yes" name="hr03"/>
      <point x="722" y="229"/>
      <point x="719" y="251"/>
      <point x="701" y="261" type="curve" smooth="yes"/>
      <point x="687" y="269"/>
      <point x="662" y="269"/>
      <point x="650" y="242" type="curve" smooth="yes"/>
      <point x="559" y="40" type="line" smooth="yes"/>
      <point x="555" y="31"/>
      <point x="551" y="27"/>
      <point x="543" y="29" type="curve" smooth="yes"/>
      <point x="538" y="30"/>
      <point x="538" y="38"/>
      <point x="539" y="44" type="curve" smooth="yes"/>
      <point x="623" y="479" type="line" smooth="yes"/>
      <point x="629" y="509"/>
      <point x="616" y="529"/>
      <point x="602" y="537" type="curve" smooth="yes"/>
      <point x="586" y="545"/>
      <point x="565" y="545"/>
      <point x="551" y="512" type="curve" smooth="yes"/>
      <point x="354" y="42" type="line" smooth="yes"/>
      <point x="349" y="31"/>
      <point x="340" y="26"/>
      <point x="332" y="28" type="curve" smooth="yes"/>
      <point x="324" y="30"/>
      <point x="322" y="36"/>
      <point x="325" y="48" type="curve" smooth="yes"/>
      <point x="507" y="691" type="line" smooth="yes"/>
      <point x="514" y="716"/>
      <point x="505" y="736"/>
      <point x="490" y="744" type="curve" smooth="yes"/>
      <point x="475" y="752"/>
      <point x="450" y="754"/>
      <point x="435" y="719" type="curve" smooth="yes"/>
      <point x="132" y="11" type="line"/>
    </contour>
  </outline>
</glyph>
<glyph name="o.2" format="2">
  <advance width="930"/>
  <unicode hex="E001"/>
  <outline>
    <contour>
      <point x="577" y="749" type="line" name="hr01"/>
      <point x="565" y="755"/>
      <point x="550" y="761"/>
      <point x="530" y="764" type="curve"/>
      <point x="511" y="768"/>
      <point x="486" y="770"/>
      <point x="452" y="770" type="curve" smooth="yes"/>
      <point x="403" y="770"/>
      <point x="349" y="764"/>
      <point x="307" y="751" type="curve" smooth="yes"/>
      <point x="255" y="736"/>
      <point x="226" y="711"/>
      <point x="226" y="681" type="curve" smooth="yes"/>
      <point x="226" y="655"/>
      <point x="241" y="635"/>
      <point x="295" y="624" type="curve" smooth="yes"/>
      <point x="336" y="616"/>
      <point x="401" y="613"/>
      <point x="496" y="613" type="curve" smooth="yes"/>
      <point x="611" y="613"/>
      <point x="685" y="610"/>
      <point x="729" y="600" type="curve" smooth="yes" name="hr02"/>
      <point x="762" y="593"/>
      <point x="778" y="583"/>
      <point x="778" y="562" type="curve" smooth="yes"/>
      <point x="778" y="540"/>
      <point x="766" y="530"/>
      <point x="732" y="523" type="curve"/>
      <point x="686" y="515"/>
      <point x="605" y="513"/>
      <point x="467" y="513" type="curve" smooth="yes"/>
      <point x="322" y="513"/>
      <point x="232" y="510"/>
      <point x="179" y="501" type="curve" smooth="yes"/>
      <point x="111" y="489"/>
      <point x="96" y="466"/>
      <point x="96" y="433" type="curve" smooth="yes"/>
      <point x="96" y="405"/>
      <point x="111" y="382"/>
      <point x="179" y="369" type="curve" smooth="yes"/>
      <point x="233" y="359"/>
      <point x="323" y="355"/>
      <point x="465" y="355" type="curve" smooth="yes"/>
      <point x="613" y="355"/>
      <point x="701" y="353"/>
      <point x="752" y="344" type="curve" smooth="yes" name="hr03"/>
      <point x="789" y="338"/>
      <point x="805" y="329"/>
      <point x="805" y="308" type="curve" smooth="yes"/>
      <point x="805" y="284"/>
      <point x="790" y="274"/>
      <point x="753" y="268" type="curve" smooth="yes"/>
      <point x="703" y="259"/>
      <point x="617" y="257"/>
      <point x="473" y="257" type="curve" smooth="yes"/>
      <point x="349" y="257"/>
      <point x="266" y="260"/>
      <point x="213" y="254" type="curve" smooth="yes"/>
      <point x="147" y="246"/>
      <point x="127" y="225"/>
      <point x="127" y="187" type="curve" smooth="yes"/>
      <point x="127" y="153"/>
      <point x="148" y="131"/>
      <point x="206" y="119" type="curve" smooth="yes"/>
      <point x="252" y="110"/>
      <point x="323" y="108"/>
      <point x="421" y="108" type="curve" smooth="yes"/>
      <point x="522" y="108"/>
      <point x="589" y="107"/>
      <point x="631" y="101" type="curve" smooth="yes"/>
      <point x="658" y="97"/>
      <point x="678" y="92"/>
      <point x="678" y="75" type="curve" smooth="yes"/>
      <point x="678" y="54"/>
      <point x="649" y="40"/>
      <point x="615" y="30" type="curve"/>
      <point x="573" y="16"/>
      <point x="517" y="9"/>
      <point x="463" y="9" type="curve" smooth="yes"/>
      <point x="433" y="9"/>
      <point x="405" y="11"/>
      <point x="382" y="15" type="curve" smooth="yes"/>
      <point x="360" y="18"/>
      <point x="342" y="22"/>
      <point x="332" y="25" type="curve"/>
      <point x="322" y="-2" type="line"/>
      <point x="334" y="-6"/>
      <point x="353" y="-11"/>
      <point x="378" y="-14" type="curve"/>
      <point x="402" y="-18"/>
      <point x="431" y="-20"/>
      <point x="463" y="-20" type="curve" smooth="yes"/>
      <point x="521" y="-20"/>
      <point x="579" y="-12"/>
      <point x="624" y="2" type="curve" smooth="yes"/>
      <point x="677" y="19"/>
      <point x="707" y="46"/>
      <point x="707" y="75" type="curve" smooth="yes"/>
      <point x="707" y="102"/>
      <point x="693" y="121"/>
      <point x="636" y="130" type="curve" smooth="yes"/>
      <point x="593" y="136"/>
      <point x="524" y="137"/>
      <point x="421" y="137" type="curve" smooth="yes"/>
      <point x="325" y="137"/>
      <point x="256" y="139"/>
      <point x="211" y="148" type="curve" smooth="yes"/>
      <point x="178" y="154"/>
      <point x="156" y="164"/>
      <point x="156" y="187" type="curve" smooth="yes"/>
      <point x="156" y="214"/>
      <point x="179" y="221"/>
      <point x="216" y="225" type="curve" smooth="yes"/>
      <point x="268" y="231"/>
      <point x="351" y="229"/>
      <point x="473" y="229" type="curve" smooth="yes"/>
      <point x="619" y="229"/>
      <point x="707" y="230"/>
      <point x="758" y="239" type="curve" smooth="yes"/>
      <point x="821" y="251"/>
      <point x="834" y="273"/>
      <point x="834" y="308" type="curve" smooth="yes"/>
      <point x="834" y="339"/>
      <point x="822" y="361"/>
      <point x="757" y="373" type="curve"/>
      <point x="705" y="381"/>
      <point x="616" y="384"/>
      <point x="465" y="384" type="curve" smooth="yes"/>
      <point x="325" y="384"/>
      <point x="237" y="388"/>
      <point x="185" y="398" type="curve" smooth="yes" name="hr04"/>
      <point x="146" y="405"/>
      <point x="125" y="413"/>
      <point x="125" y="433" type="curve" smooth="yes"/>
      <point x="125" y="456"/>
      <point x="144" y="466"/>
      <point x="184" y="473" type="curve" smooth="yes"/>
      <point x="236" y="482"/>
      <point x="325" y="484"/>
      <point x="467" y="484" type="curve" smooth="yes"/>
      <point x="608" y="484"/>
      <point x="690" y="486"/>
      <point x="737" y="495" type="curve" smooth="yes"/>
      <point x="796" y="506"/>
      <point x="807" y="528"/>
      <point x="807" y="562" type="curve" smooth="yes"/>
      <point x="807" y="594"/>
      <point x="792" y="616"/>
      <point x="735" y="629" type="curve" smooth="yes"/>
      <point x="690" y="639"/>
      <point x="614" y="642"/>
      <point x="496" y="642" type="curve" smooth="yes"/>
      <point x="403" y="642"/>
      <point x="340" y="645"/>
      <point x="301" y="653" type="curve" smooth="yes"/>
      <point x="274" y="658"/>
      <point x="255" y="665"/>
      <point x="255" y="681" type="curve" smooth="yes"/>
      <point x="255" y="703"/>
      <point x="284" y="715"/>
      <point x="315" y="724" type="curve" smooth="yes"/>
      <point x="355" y="736"/>
      <point x="406" y="741"/>
      <point x="452" y="741" type="curve" smooth="yes"/>
      <point x="484" y="741"/>
      <point x="507" y="739"/>
      <point x="525" y="736" type="curve" smooth="yes"/>
      <point x="541" y="733"/>
      <point x="553" y="729"/>
      <point x="563" y="723" type="curve"/>
    </contour>
  </outline>
</glyph>
<glyph name="shadowblackcircle" format="2">
  <advance width="930"/>
  <unicode hex="E002"/>
  <outline>
    <contour>
      <point x="464" y="770" type="curve" smooth="yes" name="hr00"/>
      <point x="216" y="770"/>
      <point x="90" y="627"/>
      <point x="90" y="368" type="curve" smooth="yes"/>
      <point x="90" y="117"/>
      <point x="219" y="-20"/>
      <point x="464" y="-20" type="curve" smooth="yes"/>
      <point x="709" y="-20"/>
      <point x="840" y="117"/>
      <point x="840" y="368" type="curve" smooth="yes"/>
      <point x="840" y="627"/>
      <point x="714" y="770"/>
    </contour>
    <contour>
      <point x="464" y="741" type="curve" smooth="yes"/>
      <point x="623" y="741"/>
      <point x="678" y="639"/>
      <point x="678" y="367" type="curve" smooth="yes"/>
      <point x="678" y="121"/>
      <point x="620" y="9"/>
      <point x="464" y="9" type="curve" smooth="yes"/>
      <point x="241" y="9"/>
      <point x="119" y="124"/>
      <point x="119" y="367" type="curve" smooth="yes"/>
      <point x="119" y="620"/>
      <point x="235" y="741"/>
    </contour>
  </outline>
</glyph>
<glyph name="FAM" format="2">
  <advance width="930"/>
  <outline>
    <contour>
      <point x="826" y="469" type="curve" name="hr01"/>
      <point x="826" y="531" type="line"/>
      <point x="813" y="531" type="line"/>
      <point x="813" y="469" type="line" smooth="yes"/>
      <point x="813" y="449"/>
      <point x="807" y="436"/>
      <point x="792" y="436" type="curve" smooth="yes"/>
      <point x="776" y="436"/>
      <point x="757" y="454"/>
      <point x="707" y="510" type="curve" smooth="yes"/>
      <point x="700" y="518" type="line"/>
      <point x="712" y="552"/>
      <point x="714" y="591"/>
      <point x="714" y="624" type="curve"/>
      <point x="796" y="624" type="line"/>
      <point x="796" y="636" type="line"/>
      <point x="675" y="636" type="line"/>
      <point x="698" y="651"/>
      <point x="713" y="678"/>
      <point x="713" y="708" type="curve" smooth="yes"/>
      <point x="713" y="762"/>
      <point x="670" y="790"/>
      <point x="605" y="790" type="curve" smooth="yes"/>
      <point x="535" y="790"/>
      <point x="495" y="754"/>
      <point x="495" y="704" type="curve" smooth="yes"/>
      <point x="495" y="676"/>
      <point x="505" y="641"/>
      <point x="534" y="609" type="curve" smooth="yes"/>
      <point x="545" y="597" type="line"/>
      <point x="492" y="577"/>
      <point x="432" y="541"/>
      <point x="432" y="483" type="curve" smooth="yes" name="hr02"/>
      <point x="432" y="442"/>
      <point x="473" y="395"/>
      <point x="537" y="395" type="curve" smooth="yes"/>
      <point x="594" y="395"/>
      <point x="642" y="419"/>
      <point x="669" y="458" type="curve"/>
      <point x="717" y="408"/>
      <point x="742" y="395"/>
      <point x="768" y="395" type="curve" smooth="yes" name="hr03"/>
      <point x="808" y="395"/>
      <point x="826" y="417"/>
    </contour>
    <contour>
      <point x="72" y="767" type="line" name="hr05"/>
      <point x="149" y="767" type="line"/>
      <point x="149" y="418" type="line"/>
      <point x="72" y="418" type="line"/>
      <point x="72" y="405" type="line"/>
      <point x="304" y="405" type="line"/>
      <point x="304" y="418" type="line"/>
      <point x="212" y="418" type="line"/>
      <point x="212" y="554" type="line"/>
      <point x="341" y="554" type="line"/>
      <point x="341" y="475" type="line"/>
      <point x="353" y="475" type="line"/>
      <point x="353" y="646" type="line"/>
      <point x="341" y="646" type="line"/>
      <point x="341" y="567" type="line"/>
      <point x="212" y="567" type="line"/>
      <point x="212" y="767" type="line"/>
      <point x="345" y="767" type="line" smooth="yes"/>
      <point x="417" y="767"/>
      <point x="433" y="750"/>
      <point x="433" y="683" type="curve" smooth="yes"/>
      <point x="433" y="611" type="line"/>
      <point x="446" y="611" type="line"/>
      <point x="446" y="780" type="line"/>
      <point x="72" y="780" type="line"/>
    </contour>
    <contour>
      <point x="589" y="643" type="line" smooth="yes"/>
      <point x="553" y="683"/>
      <point x="543" y="711"/>
      <point x="543" y="731" type="curve" smooth="yes" name="hr06"/>
      <point x="543" y="766"/>
      <point x="573" y="777"/>
      <point x="607" y="777" type="curve" smooth="yes"/>
      <point x="661" y="777"/>
      <point x="700" y="756"/>
      <point x="700" y="708" type="curve" smooth="yes"/>
      <point x="700" y="671"/>
      <point x="676" y="639"/>
      <point x="634" y="636" type="curve"/>
      <point x="634" y="624" type="line"/>
      <point x="701" y="624" type="line"/>
      <point x="701" y="592"/>
      <point x="699" y="559"/>
      <point x="690" y="529" type="curve"/>
    </contour>
    <contour>
      <point x="502" y="493" type="curve" smooth="yes" name="hr07"/>
      <point x="502" y="553"/>
      <point x="514" y="571"/>
      <point x="554" y="587" type="curve"/>
      <point x="650" y="479" type="line" smooth="yes"/>
      <point x="653" y="475"/>
      <point x="657" y="472"/>
      <point x="660" y="468" type="curve"/>
      <point x="629" y="430"/>
      <point x="599" y="413"/>
      <point x="557" y="413" type="curve" smooth="yes"/>
      <point x="522" y="413"/>
      <point x="502" y="435"/>
    </contour>
    <contour>
      <point x="445" y="42" type="curve" name="hr08"/>
      <point x="445" y="80" type="line" name="hr09"/>
      <point x="432" y="80" type="line"/>
      <point x="432" y="43" type="line" smooth="yes"/>
      <point x="432" y="5"/>
      <point x="428" y="-9"/>
      <point x="408" y="-9" type="curve" smooth="yes"/>
      <point x="395" y="-9"/>
      <point x="388" y="9"/>
      <point x="388" y="42" type="curve" smooth="yes"/>
      <point x="388" y="246" type="line" smooth="yes"/>
      <point x="388" y="320"/>
      <point x="334" y="368"/>
      <point x="226" y="368" type="curve" smooth="yes"/>
      <point x="145" y="368"/>
      <point x="73" y="317"/>
      <point x="73" y="252" type="curve" smooth="yes"/>
      <point x="73" y="221"/>
      <point x="86" y="196"/>
      <point x="111" y="181" type="curve"/>
      <point x="119" y="192" type="line"/>
      <point x="100" y="205"/>
      <point x="86" y="222"/>
      <point x="86" y="252" type="curve" smooth="yes"/>
      <point x="86" y="315"/>
      <point x="158" y="355"/>
      <point x="225" y="355" type="curve" smooth="yes"/>
      <point x="299" y="355"/>
      <point x="324" y="327"/>
      <point x="324" y="256" type="curve"/>
      <point x="324" y="255" type="line"/>
      <point x="324" y="223"/>
      <point x="275" y="208"/>
      <point x="223" y="186" type="curve" smooth="yes"/>
      <point x="153" y="157"/>
      <point x="71" y="125"/>
      <point x="71" y="61" type="curve" smooth="yes" name="hr10"/>
      <point x="71" y="11"/>
      <point x="104" y="-28"/>
      <point x="185" y="-28" type="curve" smooth="yes"/>
      <point x="244" y="-28"/>
      <point x="302" y="18"/>
      <point x="324" y="68" type="curve"/>
      <point x="324" y="43" type="line" smooth="yes"/>
      <point x="324" y="-3"/>
      <point x="344" y="-28"/>
      <point x="390" y="-28" type="curve" smooth="yes"/>
      <point x="434" y="-28"/>
      <point x="445" y="-12"/>
    </contour>
    <contour>
      <point x="464" y="342" type="line" name="hr12"/>
      <point x="506" y="342" type="line"/>
      <point x="506" y="-8" type="line"/>
      <point x="464" y="-8" type="line"/>
      <point x="464" y="-21" type="line"/>
      <point x="859" y="-21" type="line"/>
      <point x="859" y="-8" type="line"/>
      <point x="818" y="-8" type="line"/>
      <point x="818" y="246" type="line" smooth="yes"/>
      <point x="818" y="320"/>
      <point x="791" y="365"/>
      <point x="741" y="365" type="curve" smooth="yes" name="hr13"/>
      <point x="712" y="365"/>
      <point x="697" y="349"/>
      <point x="687" y="303" type="curve"/>
      <point x="676" y="343"/>
      <point x="653" y="365"/>
      <point x="619" y="365" type="curve" smooth="yes"/>
      <point x="590" y="365"/>
      <point x="573" y="348"/>
      <point x="563" y="300" type="curve"/>
      <point x="563" y="355" type="line" name="hr14"/>
      <point x="464" y="355" type="line"/>
    </contour>
    <contour>
      <point x="569" y="206" type="line" smooth="yes"/>
      <point x="569" y="305"/>
      <point x="586" y="347"/>
      <point x="606" y="347" type="curve" smooth="yes" name="hr15"/>
      <point x="624" y="347"/>
      <point x="630" y="322"/>
      <point x="630" y="246" type="curve" smooth="yes"/>
      <point x="630" y="-8" type="line"/>
      <point x="569" y="-8" type="line"/>
    </contour>
    <contour>
      <point x="694" y="206" type="line" smooth="yes"/>
      <point x="694" y="304"/>
      <point x="709" y="347"/>
      <point x="728" y="347" type="curve" smooth="yes"/>
      <point x="747" y="347"/>
      <point x="755" y="322"/>
      <point x="755" y="246" type="curve" smooth="yes"/>
      <point x="755" y="-8" type="line"/>
      <point x="694" y="-8" type="line"/>
    </contour>
    <contour>
      <point x="141" y="84" type="curve" smooth="yes"/>
      <point x="141" y="133"/>
      <point x="167" y="148"/>
      <point x="228" y="174" type="curve" smooth="yes"/>
      <point x="277" y="195"/>
      <point x="308" y="207"/>
      <point x="324" y="225" type="curve"/>
      <point x="324" y="116" type="line" smooth="yes"/>
      <point x="324" y="63"/>
      <point x="263" y="-8"/>
      <point x="200" y="-8" type="curve" smooth="yes"/>
      <point x="150" y="-8"/>
      <point x="141" y="29"/>
    </contour>
  </outline>
</glyph>
<glyph name="I.acc" format="2">
  <advance width="930"/>
  <outline>
    <contour>
      <point x="90" y="725" type="line" name="hr00"/>
      <point x="401" y="725" type="line"/>
      <point x="401" y="25" type="line"/>
      <point x="90" y="25" type="line"/>
      <point x="90" y="0" type="line"/>
      <point x="839" y="0" type="line"/>
      <point x="839" y="25" type="line"/>
      <point x="529" y="25" type="line"/>
      <point x="529" y="725" type="line"/>
      <point x="840" y="725" type="line"/>
      <point x="840" y="750" type="line"/>
      <point x="90" y="750" type="line"/>
    </contour>
  </outline>
</glyph>
<glyph name="VTF" format="2">
  <advance width="1678"/>
  <outline>
    <contour>
      <point x="980" y="732" type="curve" name="hr01"/>
      <point x="954" y="732" type="line"/>
      <point x="954" y="551"/>
      <point x="867" y="480"/>
      <point x="794" y="480" type="curve" smooth="yes"/>
      <point x="668" y="480"/>
      <point x="630" y="557"/>
      <point x="630" y="769" type="curve" smooth="yes"/>
      <point x="630" y="963" type="line"/>
      <point x="980" y="963" type="line"/>
      <point x="980" y="990" type="line"/>
      <point x="630" y="990" type="line"/>
      <point x="630" y="1143" type="line"/>
      <point x="605" y="1143" type="line"/>
      <point x="374" y="990" type="line"/>
      <point x="285" y="990" type="line"/>
      <point x="285" y="963" type="line"/>
      <point x="503" y="963" type="line"/>
      <point x="503" y="769" type="line" smooth="yes"/>
      <point x="503" y="561"/>
      <point x="588" y="453"/>
      <point x="768" y="453" type="curve" smooth="yes"/>
      <point x="880" y="453"/>
      <point x="980" y="527"/>
    </contour>
    <contour>
      <point x="1311" y="25" type="line"/>
      <point x="961" y="25" type="line"/>
      <point x="1021" y="189" type="line"/>
      <point x="1411" y="189" type="line"/>
      <point x="1411" y="214" type="line"/>
      <point x="1030" y="214" type="line"/>
      <point x="1032" y="219" type="line" smooth="yes"/>
      <point x="1088" y="337"/>
      <point x="1235" y="378"/>
      <point x="1335" y="411" type="curve" smooth="yes"/>
      <point x="1484" y="461"/>
      <point x="1573" y="545"/>
      <point x="1573" y="650" type="curve" smooth="yes"/>
      <point x="1573" y="728"/>
      <point x="1518" y="770"/>
      <point x="1416" y="770" type="curve" smooth="yes" name="hr02"/>
      <point x="1220" y="770"/>
      <point x="1063" y="654"/>
      <point x="975" y="413" type="curve" smooth="yes"/>
      <point x="902" y="214" type="line"/>
      <point x="761" y="214" type="line"/>
      <point x="761" y="189" type="line"/>
      <point x="893" y="189" type="line"/>
      <point x="833" y="25" type="line"/>
      <point x="662" y="25" type="line"/>
      <point x="662" y="0" type="line"/>
      <point x="1311" y="0" type="line"/>
    </contour>
    <contour>
      <point x="1103" y="412" type="line" smooth="yes"/>
      <point x="1194" y="661"/>
      <point x="1280" y="743"/>
      <point x="1408" y="743" type="curve" smooth="yes"/>
      <point x="1488" y="743"/>
      <point x="1543" y="711"/>
      <point x="1543" y="644" type="curve" smooth="yes"/>
      <point x="1543" y="547"/>
      <point x="1464" y="483"/>
      <point x="1328" y="435" type="curve" smooth="yes"/>
      <point x="1252" y="408"/>
      <point x="1132" y="372"/>
      <point x="1059" y="292" type="curve"/>
    </contour>
    <contour>
      <point x="402" y="725" type="line" name="hr03"/>
      <point x="402" y="750" type="line"/>
      <point x="60" y="750" type="line"/>
      <point x="60" y="725" type="line"/>
      <point x="134" y="725" type="line"/>
      <point x="398" y="0" type="line"/>
      <point x="538" y="0" type="line"/>
      <point x="668" y="359" type="line"/>
      <point x="738" y="359" type="line"/>
      <point x="738" y="384" type="line"/>
      <point x="492" y="384" type="line"/>
      <point x="492" y="359" type="line"/>
      <point x="637" y="359" type="line"/>
      <point x="516" y="25" type="line"/>
      <point x="261" y="725" type="line"/>
    </contour>
  </outline>
</glyph>
<glyph name="WWW" format="2">
  <advance width="1860"/>
  <outline>
    <contour>
      <point x="729" y="0" type="line" name="hr00"/>
      <point x="873" y="0" type="line"/>
      <point x="932" y="369" type="line"/>
      <point x="980" y="0" type="line"/>
      <point x="1123" y="0" type="line"/>
      <point x="1182" y="369" type="line"/>
      <point x="1230" y="0" type="line"/>
      <point x="1372" y="0" type="line"/>
      <point x="1431" y="369" type="line"/>
      <point x="1479" y="0" type="line"/>
      <point x="1624" y="0" type="line"/>
      <point x="1710" y="725" type="line"/>
      <point x="1800" y="725" type="line"/>
      <point x="1800" y="750" type="line"/>
      <point x="60" y="750" type="line"/>
      <point x="60" y="725" type="line"/>
      <point x="144" y="725" type="line"/>
      <point x="216" y="0" type="line"/>
      <point x="371" y="0" type="line"/>
      <point x="430" y="369" type="line"/>
      <point x="478" y="0" type="line"/>
      <point x="622" y="0" type="line"/>
      <point x="681" y="369" type="line"/>
    </contour>
    <contour>
      <point x="271" y="725" type="line"/>
      <point x="455" y="725" type="line"/>
      <point x="342" y="12" type="line"/>
    </contour>
    <contour>
      <point x="494" y="725" type="line"/>
      <point x="706" y="725" type="line"/>
      <point x="593" y="13" type="line"/>
    </contour>
    <contour>
      <point x="745" y="725" type="line"/>
      <point x="957" y="725" type="line"/>
      <point x="844" y="13" type="line"/>
    </contour>
    <contour>
      <point x="996" y="725" type="line"/>
      <point x="1207" y="725" type="line"/>
      <point x="1095" y="17" type="line"/>
    </contour>
    <contour>
      <point x="1246" y="725" type="line"/>
      <point x="1456" y="725" type="line"/>
      <point x="1344" y="20" type="line"/>
    </contour>
    <contour>
      <point x="1495" y="725" type="line"/>
      <point x="1679" y="725" type="line"/>
      <point x="1594" y="12" type="line"/>
    </contour>
  </outline>
</glyph>
<glyph name="delta.ss04" format="2">
  <advance width="930"/>
  <outline>
    <contour>
      <point x="806" y="305" type="curve" smooth="yes" name="hr00"/>
      <point x="806" y="547"/>
      <point x="604" y="689"/>
      <point x="317" y="730" type="curve"/>
      <point x="316" y="723" type="line"/>
      <point x="800" y="723" type="line"/>
      <point x="800" y="750" type="line"/>
      <point x="133" y="750" type="line"/>
      <point x="133" y="723" type="line"/>
      <point x="180" y="723" type="line" smooth="yes"/>
      <point x="432" y="723"/>
      <point x="662" y="599"/>
      <point x="675" y="427" type="curve"/>
      <point x="682" y="428" type="line"/>
      <point x="665" y="497"/>
      <point x="569" y="571"/>
      <point x="442" y="571" type="curve" smooth="yes"/>
      <point x="250" y="571"/>
      <point x="105" y="448"/>
      <point x="105" y="286" type="curve" smooth="yes"/>
      <point x="105" y="124"/>
      <point x="250" y="0"/>
      <point x="462" y="0" type="curve" smooth="yes"/>
      <point x="632" y="0"/>
      <point x="806" y="108"/>
    </contour>
    <contour>
      <point x="461" y="27" type="curve" smooth="yes"/>
      <point x="324" y="27"/>
      <point x="245" y="98"/>
      <point x="245" y="289" type="curve" smooth="yes"/>
      <point x="245" y="487"/>
      <point x="317" y="544"/>
      <point x="440" y="544" type="curve" smooth="yes"/>
      <point x="519" y="544"/>
      <point x="678" y="525"/>
      <point x="678" y="289" type="curve" smooth="yes"/>
      <point x="678" y="108"/>
      <point x="606" y="27"/>
    </contour>
  </outline>
</glyph>
<glyph name="dngb:starpointedblackfour" format="2">
  <advance width="930"/>
  <outline>
    <contour>
      <point x="767" y="403" type="line"/>
      <point x="622" y="463"/>
      <point x="530" y="554"/>
      <point x="470" y="699" type="curve"/>
      <point x="460" y="699" type="line"/>
      <point x="400" y="554"/>
      <point x="308" y="463"/>
      <point x="163" y="403" type="curve"/>
      <point x="163" y="393" type="line"/>
      <point x="308" y="333"/>
      <point x="400" y="242"/>
      <point x="460" y="97" type="curve"/>
      <point x="470" y="97" type="line"/>
      <point x="530" y="242"/>
      <point x="622" y="333"/>
      <point x="767" y="393" type="curve"/>
    </contour>
  </outline>
</glyph>
<glyph name="europe13" format="2">
  <advance width="1378"/>
  <outline>
    <contour>
      <point x="100" y="0" type="line" name="hr01"/>
      <point x="1278" y="0" type="line"/>
      <point x="1278" y="750" type="line"/>
      <point x="100" y="750" type="line"/>
    </contour>
    <contour>
      <point x="689" y="694" type="line"/>
      <point x="702" y="650" type="line"/>
      <point x="747" y="652" type="line"/>
      <point x="710" y="626" type="line"/>
      <point x="725" y="584" type="line"/>
      <point x="689" y="611" type="line"/>
      <point x="653" y="584" type="line"/>
      <point x="668" y="626" type="line"/>
      <point x="631" y="652" type="line"/>
      <point x="676" y="650" type="line"/>
    </contour>
    <contour>
      <point x="837" y="658" type="line" name="hr02"/>
      <point x="828" y="613" type="line"/>
      <point x="869" y="594" type="line"/>
      <point x="823" y="588" type="line"/>
      <point x="817" y="544" type="line"/>
      <point x="798" y="584" type="line"/>
      <point x="754" y="577" type="line"/>
      <point x="786" y="607" type="line"/>
      <point x="766" y="648" type="line"/>
      <point x="805" y="625" type="line"/>
    </contour>
    <contour>
      <point x="541" y="658" type="line"/>
      <point x="573" y="625" type="line"/>
      <point x="612" y="647" type="line"/>
      <point x="591" y="607" type="line"/>
      <point x="624" y="577" type="line"/>
      <point x="580" y="584" type="line"/>
      <point x="560" y="543" type="line"/>
      <point x="554" y="587" type="line"/>
      <point x="509" y="593" type="line"/>
      <point x="550" y="613" type="line"/>
    </contour>
    <contour>
      <point x="951" y="557" type="line" name="hr03"/>
      <point x="922" y="521" type="line"/>
      <point x="949" y="485" type="line"/>
      <point x="906" y="501" type="line"/>
      <point x="881" y="465" type="line"/>
      <point x="882" y="509" type="line"/>
      <point x="840" y="524" type="line" name="hr04"/>
      <point x="883" y="535" type="line"/>
      <point x="883" y="581" type="line"/>
      <point x="907" y="542" type="line" name="hr05"/>
    </contour>
    <contour>
      <point x="427" y="557" type="line" name="hr06"/>
      <point x="470" y="542" type="line"/>
      <point x="494" y="580" type="line"/>
      <point x="495" y="535" type="line"/>
      <point x="538" y="523" type="line" name="hr07"/>
      <point x="496" y="509" type="line"/>
      <point x="497" y="464" type="line"/>
      <point x="471" y="500" type="line" name="hr08"/>
      <point x="428" y="485" type="line"/>
      <point x="456" y="521" type="line"/>
    </contour>
    <contour>
      <point x="1005" y="414" type="line" name="hr09"/>
      <point x="963" y="396" type="line"/>
      <point x="971" y="352" type="line"/>
      <point x="940" y="385" type="line"/>
      <point x="900" y="365" type="line"/>
      <point x="922" y="404" type="line"/>
      <point x="891" y="437" type="line"/>
      <point x="935" y="427" type="line"/>
      <point x="956" y="467" type="line"/>
      <point x="960" y="422" type="line"/>
    </contour>
    <contour>
      <point x="373" y="414" type="line"/>
      <point x="418" y="421" type="line"/>
      <point x="421" y="466" type="line"/>
      <point x="443" y="426" type="line"/>
      <point x="487" y="436" type="line"/>
      <point x="456" y="404" type="line"/>
      <point x="478" y="365" type="line"/>
      <point x="438" y="385" type="line"/>
      <point x="408" y="351" type="line"/>
      <point x="415" y="396" type="line"/>
    </contour>
    <contour>
      <point x="987" y="263" type="line"/>
      <point x="941" y="267" type="line"/>
      <point x="927" y="224" type="line"/>
      <point x="916" y="268" type="line"/>
      <point x="871" y="268" type="line"/>
      <point x="909" y="293" type="line"/>
      <point x="897" y="336" type="line"/>
      <point x="930" y="307" type="line"/>
      <point x="968" y="332" type="line"/>
      <point x="950" y="291" type="line"/>
    </contour>
    <contour>
      <point x="391" y="262" type="line"/>
      <point x="428" y="290" type="line"/>
      <point x="410" y="332" type="line"/>
      <point x="448" y="306" type="line"/>
      <point x="482" y="335" type="line"/>
      <point x="469" y="292" type="line"/>
      <point x="507" y="268" type="line"/>
      <point x="463" y="267" type="line"/>
      <point x="451" y="223" type="line"/>
      <point x="437" y="266" type="line"/>
    </contour>
    <contour>
      <point x="901" y="137" type="line"/>
      <point x="862" y="162" type="line"/>
      <point x="829" y="130" type="line"/>
      <point x="839" y="175" type="line"/>
      <point x="800" y="196" type="line"/>
      <point x="845" y="200" type="line"/>
      <point x="854" y="244" type="line"/>
      <point x="871" y="202" type="line"/>
      <point x="916" y="207" type="line"/>
      <point x="881" y="179" type="line"/>
    </contour>
    <contour>
      <point x="478" y="137" type="line" name="hr10"/>
      <point x="497" y="179" type="line"/>
      <point x="462" y="207" type="line"/>
      <point x="508" y="202" type="line"/>
      <point x="524" y="243" type="line"/>
      <point x="533" y="200" type="line"/>
      <point x="578" y="196" type="line"/>
      <point x="539" y="175" type="line"/>
      <point x="549" y="130" type="line"/>
      <point x="517" y="161" type="line"/>
    </contour>
    <contour>
      <point x="613" y="66" type="line"/>
      <point x="611" y="112" type="line"/>
      <point x="567" y="121" type="line"/>
      <point x="609" y="138" type="line"/>
      <point x="604" y="182" type="line"/>
      <point x="633" y="147" type="line"/>
      <point x="674" y="165" type="line"/>
      <point x="650" y="128" type="line"/>
      <point x="679" y="93" type="line"/>
      <point x="636" y="106" type="line"/>
    </contour>
    <contour>
      <point x="766" y="66" type="line"/>
      <point x="742" y="106" type="line"/>
      <point x="699" y="93" type="line"/>
      <point x="729" y="128" type="line"/>
      <point x="704" y="165" type="line"/>
      <point x="745" y="148" type="line"/>
      <point x="774" y="182" type="line"/>
      <point x="769" y="138" type="line"/>
      <point x="812" y="121" type="line"/>
      <point x="767" y="112" type="line"/>
    </contour>
  </outline>
</glyph>
